<mxfile host="app.diagrams.net" modified="2024-02-20T21:53:20.409Z" agent="Mozilla/5.0 (Windows NT 10.0; Win64; x64) AppleWebKit/537.36 (KHTML, like Gecko) Chrome/121.0.0.0 Safari/537.36" etag="ePgW8NiCyYubqorFLVP_" version="23.1.5" type="google">
  <diagram name="Page-1" id="wgiiSlHyiZzbX3V6_pn9">
    <mxGraphModel grid="1" page="1" gridSize="10" guides="1" tooltips="1" connect="1" arrows="1" fold="1" pageScale="1" pageWidth="1100" pageHeight="850" background="#FFFFFF" math="0" shadow="0">
      <root>
        <mxCell id="0" />
        <mxCell id="1" parent="0" />
        <mxCell id="Cs5zFBfVpe2Wg-GuBUAb-18" value="&lt;font style=&quot;font-size: 14px;&quot;&gt;&lt;b&gt;Dim-Student&lt;/b&gt;&lt;/font&gt;" style="swimlane;fontStyle=0;childLayout=stackLayout;horizontal=1;startSize=30;horizontalStack=0;resizeParent=1;resizeParentMax=0;resizeLast=0;collapsible=1;marginBottom=0;whiteSpace=wrap;html=1;movable=1;resizable=1;rotatable=1;deletable=1;editable=1;locked=0;connectable=1;labelBackgroundColor=none;fillColor=#B0E3E6;strokeColor=#E07A5F;fontColor=#000000;" vertex="1" parent="1">
          <mxGeometry x="510" y="-630" width="210" height="890" as="geometry">
            <mxRectangle x="460" y="70" width="110" height="30" as="alternateBounds" />
          </mxGeometry>
        </mxCell>
        <mxCell id="Cs5zFBfVpe2Wg-GuBUAb-97" value="StudentID_SK" style="text;align=left;verticalAlign=top;spacingLeft=4;spacingRight=4;overflow=hidden;rotatable=0;points=[[0,0.5],[1,0.5]];portConstraint=eastwest;fillColor=#F8CECC;strokeColor=#9673a6;" vertex="1" parent="Cs5zFBfVpe2Wg-GuBUAb-18">
          <mxGeometry y="30" width="210" height="50" as="geometry" />
        </mxCell>
        <mxCell id="Cs5zFBfVpe2Wg-GuBUAb-110" value="StudentID_BK" style="text;align=left;verticalAlign=top;spacingLeft=4;spacingRight=4;overflow=hidden;rotatable=0;points=[[0,0.5],[1,0.5]];portConstraint=eastwest;fillColor=#FFF2CC;strokeColor=#9673a6;" vertex="1" parent="Cs5zFBfVpe2Wg-GuBUAb-18">
          <mxGeometry y="80" width="210" height="26" as="geometry" />
        </mxCell>
        <mxCell id="Cs5zFBfVpe2Wg-GuBUAb-100" value="St_Fname" style="text;align=left;verticalAlign=top;spacingLeft=4;spacingRight=4;overflow=hidden;rotatable=0;points=[[0,0.5],[1,0.5]];portConstraint=eastwest;" vertex="1" parent="Cs5zFBfVpe2Wg-GuBUAb-18">
          <mxGeometry y="106" width="210" height="26" as="geometry" />
        </mxCell>
        <mxCell id="Cs5zFBfVpe2Wg-GuBUAb-104" value="St_Lname" style="text;align=left;verticalAlign=top;spacingLeft=4;spacingRight=4;overflow=hidden;rotatable=0;points=[[0,0.5],[1,0.5]];portConstraint=eastwest;" vertex="1" parent="Cs5zFBfVpe2Wg-GuBUAb-18">
          <mxGeometry y="132" width="210" height="26" as="geometry" />
        </mxCell>
        <mxCell id="Cs5zFBfVpe2Wg-GuBUAb-108" value="St_Password" style="text;align=left;verticalAlign=top;spacingLeft=4;spacingRight=4;overflow=hidden;rotatable=0;points=[[0,0.5],[1,0.5]];portConstraint=eastwest;" vertex="1" parent="Cs5zFBfVpe2Wg-GuBUAb-18">
          <mxGeometry y="158" width="210" height="26" as="geometry" />
        </mxCell>
        <mxCell id="Cs5zFBfVpe2Wg-GuBUAb-107" value="St_Email" style="text;align=left;verticalAlign=top;spacingLeft=4;spacingRight=4;overflow=hidden;rotatable=0;points=[[0,0.5],[1,0.5]];portConstraint=eastwest;" vertex="1" parent="Cs5zFBfVpe2Wg-GuBUAb-18">
          <mxGeometry y="184" width="210" height="26" as="geometry" />
        </mxCell>
        <mxCell id="Cs5zFBfVpe2Wg-GuBUAb-106" value="St_Gender" style="text;align=left;verticalAlign=top;spacingLeft=4;spacingRight=4;overflow=hidden;rotatable=0;points=[[0,0.5],[1,0.5]];portConstraint=eastwest;" vertex="1" parent="Cs5zFBfVpe2Wg-GuBUAb-18">
          <mxGeometry y="210" width="210" height="26" as="geometry" />
        </mxCell>
        <mxCell id="Cs5zFBfVpe2Wg-GuBUAb-105" value="St_Birthdate" style="text;align=left;verticalAlign=top;spacingLeft=4;spacingRight=4;overflow=hidden;rotatable=0;points=[[0,0.5],[1,0.5]];portConstraint=eastwest;" vertex="1" parent="Cs5zFBfVpe2Wg-GuBUAb-18">
          <mxGeometry y="236" width="210" height="26" as="geometry" />
        </mxCell>
        <mxCell id="Cs5zFBfVpe2Wg-GuBUAb-103" value="St_Age" style="text;align=left;verticalAlign=top;spacingLeft=4;spacingRight=4;overflow=hidden;rotatable=0;points=[[0,0.5],[1,0.5]];portConstraint=eastwest;" vertex="1" parent="Cs5zFBfVpe2Wg-GuBUAb-18">
          <mxGeometry y="262" width="210" height="26" as="geometry" />
        </mxCell>
        <mxCell id="Cs5zFBfVpe2Wg-GuBUAb-101" value="St_Faculty_GraduationYear" style="text;align=left;verticalAlign=top;spacingLeft=4;spacingRight=4;overflow=hidden;rotatable=0;points=[[0,0.5],[1,0.5]];portConstraint=eastwest;" vertex="1" parent="Cs5zFBfVpe2Wg-GuBUAb-18">
          <mxGeometry y="288" width="210" height="26" as="geometry" />
        </mxCell>
        <mxCell id="Cs5zFBfVpe2Wg-GuBUAb-94" value="&amp;nbsp;FacebookURL" style="text;html=1;align=left;verticalAlign=middle;resizable=0;points=[];autosize=1;strokeColor=none;fillColor=none;" vertex="1" parent="Cs5zFBfVpe2Wg-GuBUAb-18">
          <mxGeometry y="314" width="210" height="30" as="geometry" />
        </mxCell>
        <mxCell id="Cs5zFBfVpe2Wg-GuBUAb-95" value="St_NumFreelanceJobs" style="text;align=left;verticalAlign=top;spacingLeft=4;spacingRight=4;overflow=hidden;rotatable=0;points=[[0,0.5],[1,0.5]];portConstraint=eastwest;rounded=0;shadow=0;html=0;" vertex="1" parent="Cs5zFBfVpe2Wg-GuBUAb-18">
          <mxGeometry y="344" width="210" height="28" as="geometry" />
        </mxCell>
        <mxCell id="Cs5zFBfVpe2Wg-GuBUAb-92" value="Track_ID" style="text;align=left;verticalAlign=top;spacingLeft=4;spacingRight=4;overflow=hidden;rotatable=0;points=[[0,0.5],[1,0.5]];portConstraint=eastwest;" vertex="1" parent="Cs5zFBfVpe2Wg-GuBUAb-18">
          <mxGeometry y="372" width="210" height="26" as="geometry" />
        </mxCell>
        <mxCell id="Cs5zFBfVpe2Wg-GuBUAb-91" value="Branch_ID" style="text;align=left;verticalAlign=top;spacingLeft=4;spacingRight=4;overflow=hidden;rotatable=0;points=[[0,0.5],[1,0.5]];portConstraint=eastwest;" vertex="1" parent="Cs5zFBfVpe2Wg-GuBUAb-18">
          <mxGeometry y="398" width="210" height="26" as="geometry" />
        </mxCell>
        <mxCell id="Cs5zFBfVpe2Wg-GuBUAb-231" value="ZipCode_BK" style="text;align=left;verticalAlign=top;spacingLeft=4;spacingRight=4;overflow=hidden;rotatable=0;points=[[0,0.5],[1,0.5]];portConstraint=eastwest;" vertex="1" parent="Cs5zFBfVpe2Wg-GuBUAb-18">
          <mxGeometry y="424" width="210" height="26" as="geometry" />
        </mxCell>
        <mxCell id="Cs5zFBfVpe2Wg-GuBUAb-230" value="City" style="text;align=left;verticalAlign=top;spacingLeft=4;spacingRight=4;overflow=hidden;rotatable=0;points=[[0,0.5],[1,0.5]];portConstraint=eastwest;" vertex="1" parent="Cs5zFBfVpe2Wg-GuBUAb-18">
          <mxGeometry y="450" width="210" height="24" as="geometry" />
        </mxCell>
        <mxCell id="Cs5zFBfVpe2Wg-GuBUAb-102" value="Fcode_BK" style="text;align=left;verticalAlign=top;spacingLeft=4;spacingRight=4;overflow=hidden;rotatable=0;points=[[0,0.5],[1,0.5]];portConstraint=eastwest;" vertex="1" parent="Cs5zFBfVpe2Wg-GuBUAb-18">
          <mxGeometry y="474" width="210" height="26" as="geometry" />
        </mxCell>
        <mxCell id="Cs5zFBfVpe2Wg-GuBUAb-254" value="&amp;nbsp; Fname" style="text;html=1;align=left;verticalAlign=middle;resizable=0;points=[];autosize=1;strokeColor=none;fillColor=none;" vertex="1" parent="Cs5zFBfVpe2Wg-GuBUAb-18">
          <mxGeometry y="500" width="210" height="30" as="geometry" />
        </mxCell>
        <mxCell id="Cs5zFBfVpe2Wg-GuBUAb-253" value="&amp;nbsp;FLocation" style="text;html=1;align=left;verticalAlign=middle;resizable=0;points=[];autosize=1;strokeColor=none;fillColor=none;" vertex="1" parent="Cs5zFBfVpe2Wg-GuBUAb-18">
          <mxGeometry y="530" width="210" height="30" as="geometry" />
        </mxCell>
        <mxCell id="Cs5zFBfVpe2Wg-GuBUAb-255" value="&amp;nbsp;Intake_ID_BK" style="text;html=1;align=left;verticalAlign=middle;resizable=0;points=[];autosize=1;strokeColor=none;fillColor=none;" vertex="1" parent="Cs5zFBfVpe2Wg-GuBUAb-18">
          <mxGeometry y="560" width="210" height="30" as="geometry" />
        </mxCell>
        <mxCell id="4FmKSRbF8LB5oElhuLOY-1" value="&amp;nbsp;Intake_NO" style="text;html=1;align=left;verticalAlign=middle;resizable=0;points=[];autosize=1;strokeColor=none;fillColor=none;" vertex="1" parent="Cs5zFBfVpe2Wg-GuBUAb-18">
          <mxGeometry y="590" width="210" height="30" as="geometry" />
        </mxCell>
        <mxCell id="4FmKSRbF8LB5oElhuLOY-2" value="&amp;nbsp;Round_ID_BK" style="text;html=1;align=left;verticalAlign=middle;resizable=0;points=[];autosize=1;strokeColor=none;fillColor=none;" vertex="1" parent="Cs5zFBfVpe2Wg-GuBUAb-18">
          <mxGeometry y="620" width="210" height="30" as="geometry" />
        </mxCell>
        <mxCell id="4FmKSRbF8LB5oElhuLOY-3" value="&amp;nbsp;Round_NO" style="text;html=1;align=left;verticalAlign=middle;resizable=0;points=[];autosize=1;strokeColor=none;fillColor=none;" vertex="1" parent="Cs5zFBfVpe2Wg-GuBUAb-18">
          <mxGeometry y="650" width="210" height="30" as="geometry" />
        </mxCell>
        <mxCell id="4FmKSRbF8LB5oElhuLOY-4" value="&amp;nbsp;Phone_BK" style="text;html=1;align=left;verticalAlign=middle;resizable=0;points=[];autosize=1;strokeColor=none;fillColor=none;" vertex="1" parent="Cs5zFBfVpe2Wg-GuBUAb-18">
          <mxGeometry y="680" width="210" height="30" as="geometry" />
        </mxCell>
        <mxCell id="4FmKSRbF8LB5oElhuLOY-5" value="&amp;nbsp;Certificate_ID_BK" style="text;html=1;align=left;verticalAlign=middle;resizable=0;points=[];autosize=1;strokeColor=none;fillColor=none;" vertex="1" parent="Cs5zFBfVpe2Wg-GuBUAb-18">
          <mxGeometry y="710" width="210" height="30" as="geometry" />
        </mxCell>
        <mxCell id="4FmKSRbF8LB5oElhuLOY-6" value="&amp;nbsp;Certificate_Provider_Name" style="text;html=1;align=left;verticalAlign=middle;resizable=0;points=[];autosize=1;strokeColor=none;fillColor=none;" vertex="1" parent="Cs5zFBfVpe2Wg-GuBUAb-18">
          <mxGeometry y="740" width="210" height="30" as="geometry" />
        </mxCell>
        <mxCell id="4FmKSRbF8LB5oElhuLOY-7" value="&amp;nbsp;Certificate_issue_date" style="text;html=1;align=left;verticalAlign=middle;resizable=0;points=[];autosize=1;strokeColor=none;fillColor=none;" vertex="1" parent="Cs5zFBfVpe2Wg-GuBUAb-18">
          <mxGeometry y="770" width="210" height="30" as="geometry" />
        </mxCell>
        <mxCell id="4FmKSRbF8LB5oElhuLOY-8" value="&amp;nbsp;start_date" style="text;html=1;align=left;verticalAlign=middle;resizable=0;points=[];autosize=1;strokeColor=none;fillColor=none;" vertex="1" parent="Cs5zFBfVpe2Wg-GuBUAb-18">
          <mxGeometry y="800" width="210" height="30" as="geometry" />
        </mxCell>
        <mxCell id="4FmKSRbF8LB5oElhuLOY-9" value="&amp;nbsp;end_date" style="text;html=1;align=left;verticalAlign=middle;resizable=0;points=[];autosize=1;strokeColor=none;fillColor=none;" vertex="1" parent="Cs5zFBfVpe2Wg-GuBUAb-18">
          <mxGeometry y="830" width="210" height="30" as="geometry" />
        </mxCell>
        <mxCell id="4FmKSRbF8LB5oElhuLOY-10" value="&amp;nbsp;is_current" style="text;html=1;align=left;verticalAlign=middle;resizable=0;points=[];autosize=1;strokeColor=none;fillColor=none;" vertex="1" parent="Cs5zFBfVpe2Wg-GuBUAb-18">
          <mxGeometry y="860" width="210" height="30" as="geometry" />
        </mxCell>
        <mxCell id="Cs5zFBfVpe2Wg-GuBUAb-27" value="&lt;font style=&quot;font-size: 14px;&quot;&gt;&lt;b&gt;Dim-Branchs&lt;/b&gt;&lt;/font&gt;" style="swimlane;fontStyle=0;childLayout=stackLayout;horizontal=1;startSize=30;horizontalStack=0;resizeParent=1;resizeParentMax=0;resizeLast=0;collapsible=1;marginBottom=0;whiteSpace=wrap;html=1;movable=1;resizable=1;rotatable=1;deletable=1;editable=1;locked=0;connectable=1;labelBackgroundColor=none;fillColor=#B0E3E6;strokeColor=#E07A5F;fontColor=#000000;" vertex="1" parent="1">
          <mxGeometry x="820" y="360" width="190" height="296" as="geometry">
            <mxRectangle x="460" y="70" width="110" height="30" as="alternateBounds" />
          </mxGeometry>
        </mxCell>
        <mxCell id="Cs5zFBfVpe2Wg-GuBUAb-127" value="Branch_ID_SK" style="text;align=left;verticalAlign=top;spacingLeft=4;spacingRight=4;overflow=hidden;rotatable=0;points=[[0,0.5],[1,0.5]];portConstraint=eastwest;fillColor=#F8CECC;strokeColor=#6c8ebf;" vertex="1" parent="Cs5zFBfVpe2Wg-GuBUAb-27">
          <mxGeometry y="30" width="190" height="28" as="geometry" />
        </mxCell>
        <mxCell id="Cs5zFBfVpe2Wg-GuBUAb-119" value="Branch_ID_BK" style="text;align=left;verticalAlign=top;spacingLeft=4;spacingRight=4;overflow=hidden;rotatable=0;points=[[0,0.5],[1,0.5]];portConstraint=eastwest;fillColor=#FFF2CC;strokeColor=#6c8ebf;" vertex="1" parent="Cs5zFBfVpe2Wg-GuBUAb-27">
          <mxGeometry y="58" width="190" height="28" as="geometry" />
        </mxCell>
        <mxCell id="Cs5zFBfVpe2Wg-GuBUAb-121" value="B_Name" style="text;html=1;align=left;verticalAlign=middle;resizable=0;points=[];autosize=1;strokeColor=none;fillColor=none;" vertex="1" parent="Cs5zFBfVpe2Wg-GuBUAb-27">
          <mxGeometry y="86" width="190" height="30" as="geometry" />
        </mxCell>
        <mxCell id="Cs5zFBfVpe2Wg-GuBUAb-120" value="B_Location" style="text;html=1;align=left;verticalAlign=middle;resizable=0;points=[];autosize=1;strokeColor=none;fillColor=none;" vertex="1" parent="Cs5zFBfVpe2Wg-GuBUAb-27">
          <mxGeometry y="116" width="190" height="30" as="geometry" />
        </mxCell>
        <mxCell id="Cs5zFBfVpe2Wg-GuBUAb-123" value="MngrName" style="text;html=1;align=left;verticalAlign=middle;resizable=0;points=[];autosize=1;strokeColor=none;fillColor=none;" vertex="1" parent="Cs5zFBfVpe2Wg-GuBUAb-27">
          <mxGeometry y="146" width="190" height="30" as="geometry" />
        </mxCell>
        <mxCell id="Cs5zFBfVpe2Wg-GuBUAb-122" value="Founding_Date" style="text;html=1;align=left;verticalAlign=middle;resizable=0;points=[];autosize=1;strokeColor=none;fillColor=none;" vertex="1" parent="Cs5zFBfVpe2Wg-GuBUAb-27">
          <mxGeometry y="176" width="190" height="30" as="geometry" />
        </mxCell>
        <mxCell id="Cs5zFBfVpe2Wg-GuBUAb-251" value="start-date" style="text;html=1;align=left;verticalAlign=middle;resizable=0;points=[];autosize=1;strokeColor=none;fillColor=none;" vertex="1" parent="Cs5zFBfVpe2Wg-GuBUAb-27">
          <mxGeometry y="206" width="190" height="30" as="geometry" />
        </mxCell>
        <mxCell id="Cs5zFBfVpe2Wg-GuBUAb-250" value="end-date" style="text;html=1;align=left;verticalAlign=middle;resizable=0;points=[];autosize=1;strokeColor=none;fillColor=none;" vertex="1" parent="Cs5zFBfVpe2Wg-GuBUAb-27">
          <mxGeometry y="236" width="190" height="30" as="geometry" />
        </mxCell>
        <mxCell id="Cs5zFBfVpe2Wg-GuBUAb-252" value="is-current" style="text;html=1;align=left;verticalAlign=middle;resizable=0;points=[];autosize=1;strokeColor=none;fillColor=none;" vertex="1" parent="Cs5zFBfVpe2Wg-GuBUAb-27">
          <mxGeometry y="266" width="190" height="30" as="geometry" />
        </mxCell>
        <mxCell id="Cs5zFBfVpe2Wg-GuBUAb-33" value="&lt;font style=&quot;font-size: 14px;&quot;&gt;&lt;b&gt;Fact_Students&lt;/b&gt;&lt;/font&gt;" style="swimlane;fontStyle=0;childLayout=stackLayout;horizontal=1;startSize=30;horizontalStack=0;resizeParent=1;resizeParentMax=0;resizeLast=0;collapsible=1;marginBottom=0;whiteSpace=wrap;html=1;labelBackgroundColor=none;fillColor=#B0E3E6;strokeColor=#E07A5F;fontColor=#000000;" vertex="1" parent="1">
          <mxGeometry x="510" y="370" width="220" height="254" as="geometry" />
        </mxCell>
        <mxCell id="Cs5zFBfVpe2Wg-GuBUAb-233" value="Fact-transactional_PK_SK" style="text;align=left;verticalAlign=top;spacingLeft=4;spacingRight=4;overflow=hidden;rotatable=0;points=[[0,0.5],[1,0.5]];portConstraint=eastwest;fillColor=#F8CECC;strokeColor=#6c8ebf;" vertex="1" parent="Cs5zFBfVpe2Wg-GuBUAb-33">
          <mxGeometry y="30" width="220" height="28" as="geometry" />
        </mxCell>
        <mxCell id="Cs5zFBfVpe2Wg-GuBUAb-109" value="St_ID_FK" style="text;align=left;verticalAlign=top;spacingLeft=4;spacingRight=4;overflow=hidden;rotatable=0;points=[[0,0.5],[1,0.5]];portConstraint=eastwest;fillColor=#FFF2CC;strokeColor=#9673a6;" vertex="1" parent="Cs5zFBfVpe2Wg-GuBUAb-33">
          <mxGeometry y="58" width="220" height="26" as="geometry" />
        </mxCell>
        <mxCell id="Cs5zFBfVpe2Wg-GuBUAb-145" value="Date_FK" style="text;strokeColor=none;fillColor=#FFF2CC;align=left;verticalAlign=middle;spacingLeft=4;spacingRight=4;overflow=hidden;points=[[0,0.5],[1,0.5]];portConstraint=eastwest;rotatable=0;whiteSpace=wrap;html=1;labelBackgroundColor=none;fontColor=#000000;" vertex="1" parent="Cs5zFBfVpe2Wg-GuBUAb-33">
          <mxGeometry y="84" width="220" height="30" as="geometry" />
        </mxCell>
        <mxCell id="Cs5zFBfVpe2Wg-GuBUAb-152" value="Branch_ID_FK" style="text;align=left;verticalAlign=top;spacingLeft=4;spacingRight=4;overflow=hidden;rotatable=0;points=[[0,0.5],[1,0.5]];portConstraint=eastwest;fillColor=#FFF2CC;strokeColor=#6c8ebf;" vertex="1" parent="Cs5zFBfVpe2Wg-GuBUAb-33">
          <mxGeometry y="114" width="220" height="28" as="geometry" />
        </mxCell>
        <mxCell id="Cs5zFBfVpe2Wg-GuBUAb-174" value="Track_ID_FK" style="text;align=left;verticalAlign=top;spacingLeft=4;spacingRight=4;overflow=hidden;rotatable=0;points=[[0,0.5],[1,0.5]];portConstraint=eastwest;fillColor=#FFF2CC;strokeColor=#6c8ebf;" vertex="1" parent="Cs5zFBfVpe2Wg-GuBUAb-33">
          <mxGeometry y="142" width="220" height="26" as="geometry" />
        </mxCell>
        <mxCell id="Cs5zFBfVpe2Wg-GuBUAb-229" value="Exam_ID_FK" style="text;align=left;verticalAlign=top;spacingLeft=4;spacingRight=4;overflow=hidden;rotatable=0;points=[[0,0.5],[1,0.5]];portConstraint=eastwest;fillColor=#FFF2CC;strokeColor=#6c8ebf;" vertex="1" parent="Cs5zFBfVpe2Wg-GuBUAb-33">
          <mxGeometry y="168" width="220" height="26" as="geometry" />
        </mxCell>
        <mxCell id="Cs5zFBfVpe2Wg-GuBUAb-232" value="Total_Grade" style="text;html=1;align=left;verticalAlign=middle;resizable=0;points=[];autosize=1;strokeColor=none;fillColor=none;" vertex="1" parent="Cs5zFBfVpe2Wg-GuBUAb-33">
          <mxGeometry y="194" width="220" height="30" as="geometry" />
        </mxCell>
        <mxCell id="4FmKSRbF8LB5oElhuLOY-228" value="&amp;nbsp;Created_at" style="text;html=1;align=left;verticalAlign=middle;resizable=0;points=[];autosize=1;strokeColor=none;fillColor=none;" vertex="1" parent="Cs5zFBfVpe2Wg-GuBUAb-33">
          <mxGeometry y="224" width="220" height="30" as="geometry" />
        </mxCell>
        <mxCell id="Cs5zFBfVpe2Wg-GuBUAb-189" value="&lt;font style=&quot;font-size: 14px;&quot;&gt;&lt;b&gt;Dim-Tracks&lt;/b&gt;&lt;/font&gt;" style="swimlane;fontStyle=0;childLayout=stackLayout;horizontal=1;startSize=30;horizontalStack=0;resizeParent=1;resizeParentMax=0;resizeLast=0;collapsible=1;marginBottom=0;whiteSpace=wrap;html=1;movable=1;resizable=1;rotatable=1;deletable=1;editable=1;locked=0;connectable=1;labelBackgroundColor=none;fillColor=#B0E3E6;strokeColor=#E07A5F;fontColor=#000000;" vertex="1" parent="1">
          <mxGeometry x="510" y="740" width="230" height="370" as="geometry">
            <mxRectangle x="460" y="70" width="110" height="30" as="alternateBounds" />
          </mxGeometry>
        </mxCell>
        <mxCell id="Cs5zFBfVpe2Wg-GuBUAb-203" value="Track_ID_SK" style="text;align=left;verticalAlign=top;spacingLeft=4;spacingRight=4;overflow=hidden;rotatable=0;points=[[0,0.5],[1,0.5]];portConstraint=eastwest;fillColor=#F8CECC;strokeColor=#6c8ebf;" vertex="1" parent="Cs5zFBfVpe2Wg-GuBUAb-189">
          <mxGeometry y="30" width="230" height="30" as="geometry" />
        </mxCell>
        <mxCell id="Cs5zFBfVpe2Wg-GuBUAb-202" value="Track_ID_BK" style="text;align=left;verticalAlign=top;spacingLeft=4;spacingRight=4;overflow=hidden;rotatable=0;points=[[0,0.5],[1,0.5]];portConstraint=eastwest;fillColor=#FFF2CC;strokeColor=#6c8ebf;" vertex="1" parent="Cs5zFBfVpe2Wg-GuBUAb-189">
          <mxGeometry y="60" width="230" height="34" as="geometry" />
        </mxCell>
        <mxCell id="4FmKSRbF8LB5oElhuLOY-233" value="" style="endArrow=none;html=1;rounded=0;" edge="1" parent="Cs5zFBfVpe2Wg-GuBUAb-189">
          <mxGeometry width="50" height="50" relative="1" as="geometry">
            <mxPoint y="150" as="sourcePoint" />
            <mxPoint x="50" y="100" as="targetPoint" />
          </mxGeometry>
        </mxCell>
        <mxCell id="Cs5zFBfVpe2Wg-GuBUAb-191" value="Course_ID_FK" style="text;align=left;verticalAlign=top;spacingLeft=4;spacingRight=4;overflow=hidden;rotatable=0;points=[[0,0.5],[1,0.5]];portConstraint=eastwest;fillColor=#FFF2CC;strokeColor=#6c8ebf;" vertex="1" parent="Cs5zFBfVpe2Wg-GuBUAb-189">
          <mxGeometry y="94" width="230" height="36" as="geometry" />
        </mxCell>
        <mxCell id="4FmKSRbF8LB5oElhuLOY-105" value="Graduate_ID_FK" style="text;align=left;verticalAlign=top;spacingLeft=4;spacingRight=4;overflow=hidden;rotatable=0;points=[[0,0.5],[1,0.5]];portConstraint=eastwest;fillColor=#FFF2CC;strokeColor=#6c8ebf;" vertex="1" parent="Cs5zFBfVpe2Wg-GuBUAb-189">
          <mxGeometry y="130" width="230" height="30" as="geometry" />
        </mxCell>
        <mxCell id="Cs5zFBfVpe2Wg-GuBUAb-198" value="Track_Name" style="text;align=left;verticalAlign=top;spacingLeft=4;spacingRight=4;overflow=hidden;rotatable=0;points=[[0,0.5],[1,0.5]];portConstraint=eastwest;" vertex="1" parent="Cs5zFBfVpe2Wg-GuBUAb-189">
          <mxGeometry y="160" width="230" height="26" as="geometry" />
        </mxCell>
        <mxCell id="Cs5zFBfVpe2Wg-GuBUAb-199" value="TrackDuration" style="text;align=left;verticalAlign=top;spacingLeft=4;spacingRight=4;overflow=hidden;rotatable=0;points=[[0,0.5],[1,0.5]];portConstraint=eastwest;" vertex="1" parent="Cs5zFBfVpe2Wg-GuBUAb-189">
          <mxGeometry y="186" width="230" height="30" as="geometry" />
        </mxCell>
        <mxCell id="4FmKSRbF8LB5oElhuLOY-126" value="Manager_ID" style="text;align=left;verticalAlign=top;spacingLeft=4;spacingRight=4;overflow=hidden;rotatable=0;points=[[0,0.5],[1,0.5]];portConstraint=eastwest;" vertex="1" parent="Cs5zFBfVpe2Wg-GuBUAb-189">
          <mxGeometry y="216" width="230" height="34" as="geometry" />
        </mxCell>
        <mxCell id="Cs5zFBfVpe2Wg-GuBUAb-237" value="&amp;nbsp;Branch_ID" style="text;html=1;align=left;verticalAlign=middle;resizable=0;points=[];autosize=1;strokeColor=none;fillColor=none;" vertex="1" parent="Cs5zFBfVpe2Wg-GuBUAb-189">
          <mxGeometry y="250" width="230" height="30" as="geometry" />
        </mxCell>
        <mxCell id="Cs5zFBfVpe2Wg-GuBUAb-238" value="&amp;nbsp;Start-Date" style="text;html=1;align=left;verticalAlign=middle;resizable=0;points=[];autosize=1;strokeColor=none;fillColor=none;" vertex="1" parent="Cs5zFBfVpe2Wg-GuBUAb-189">
          <mxGeometry y="280" width="230" height="30" as="geometry" />
        </mxCell>
        <mxCell id="Cs5zFBfVpe2Wg-GuBUAb-239" value="&amp;nbsp;end_date" style="text;html=1;align=left;verticalAlign=middle;resizable=0;points=[];autosize=1;strokeColor=none;fillColor=none;" vertex="1" parent="Cs5zFBfVpe2Wg-GuBUAb-189">
          <mxGeometry y="310" width="230" height="30" as="geometry" />
        </mxCell>
        <mxCell id="4FmKSRbF8LB5oElhuLOY-227" value="&amp;nbsp;Is-Current" style="text;html=1;align=left;verticalAlign=middle;resizable=0;points=[];autosize=1;strokeColor=none;fillColor=none;" vertex="1" parent="Cs5zFBfVpe2Wg-GuBUAb-189">
          <mxGeometry y="340" width="230" height="30" as="geometry" />
        </mxCell>
        <mxCell id="4FmKSRbF8LB5oElhuLOY-11" value="&lt;b&gt;&lt;font style=&quot;font-size: 14px;&quot;&gt;Dim-Date&lt;/font&gt;&lt;/b&gt;" style="swimlane;fontStyle=0;childLayout=stackLayout;horizontal=1;startSize=30;horizontalStack=0;resizeParent=1;resizeParentMax=0;resizeLast=0;collapsible=1;marginBottom=0;whiteSpace=wrap;html=1;fillColor=#B0E3E6;" vertex="1" parent="1">
          <mxGeometry x="120" y="-380" width="200" height="690" as="geometry">
            <mxRectangle x="60" y="110" width="60" height="30" as="alternateBounds" />
          </mxGeometry>
        </mxCell>
        <mxCell id="4FmKSRbF8LB5oElhuLOY-12" value="DateSK" style="text;strokeColor=none;fillColor=#F8CECC;align=left;verticalAlign=middle;spacingLeft=4;spacingRight=4;overflow=hidden;points=[[0,0.5],[1,0.5]];portConstraint=eastwest;rotatable=0;whiteSpace=wrap;html=1;" vertex="1" parent="4FmKSRbF8LB5oElhuLOY-11">
          <mxGeometry y="30" width="200" height="30" as="geometry" />
        </mxCell>
        <mxCell id="4FmKSRbF8LB5oElhuLOY-13" value="Date" style="text;strokeColor=none;fillColor=none;align=left;verticalAlign=middle;spacingLeft=4;spacingRight=4;overflow=hidden;points=[[0,0.5],[1,0.5]];portConstraint=eastwest;rotatable=0;whiteSpace=wrap;html=1;" vertex="1" parent="4FmKSRbF8LB5oElhuLOY-11">
          <mxGeometry y="60" width="200" height="30" as="geometry" />
        </mxCell>
        <mxCell id="4FmKSRbF8LB5oElhuLOY-14" value="Day" style="text;strokeColor=none;fillColor=none;align=left;verticalAlign=middle;spacingLeft=4;spacingRight=4;overflow=hidden;points=[[0,0.5],[1,0.5]];portConstraint=eastwest;rotatable=0;whiteSpace=wrap;html=1;" vertex="1" parent="4FmKSRbF8LB5oElhuLOY-11">
          <mxGeometry y="90" width="200" height="30" as="geometry" />
        </mxCell>
        <mxCell id="4FmKSRbF8LB5oElhuLOY-15" value="DaySuffix" style="text;strokeColor=none;fillColor=none;align=left;verticalAlign=middle;spacingLeft=4;spacingRight=4;overflow=hidden;points=[[0,0.5],[1,0.5]];portConstraint=eastwest;rotatable=0;whiteSpace=wrap;html=1;" vertex="1" parent="4FmKSRbF8LB5oElhuLOY-11">
          <mxGeometry y="120" width="200" height="30" as="geometry" />
        </mxCell>
        <mxCell id="4FmKSRbF8LB5oElhuLOY-16" value="DayOfWeek" style="text;strokeColor=none;fillColor=none;align=left;verticalAlign=middle;spacingLeft=4;spacingRight=4;overflow=hidden;points=[[0,0.5],[1,0.5]];portConstraint=eastwest;rotatable=0;whiteSpace=wrap;html=1;" vertex="1" parent="4FmKSRbF8LB5oElhuLOY-11">
          <mxGeometry y="150" width="200" height="30" as="geometry" />
        </mxCell>
        <mxCell id="4FmKSRbF8LB5oElhuLOY-17" value="DOWInMonth" style="text;strokeColor=none;fillColor=none;align=left;verticalAlign=middle;spacingLeft=4;spacingRight=4;overflow=hidden;points=[[0,0.5],[1,0.5]];portConstraint=eastwest;rotatable=0;whiteSpace=wrap;html=1;" vertex="1" parent="4FmKSRbF8LB5oElhuLOY-11">
          <mxGeometry y="180" width="200" height="30" as="geometry" />
        </mxCell>
        <mxCell id="4FmKSRbF8LB5oElhuLOY-18" value="DayOfYear" style="text;strokeColor=none;fillColor=none;align=left;verticalAlign=middle;spacingLeft=4;spacingRight=4;overflow=hidden;points=[[0,0.5],[1,0.5]];portConstraint=eastwest;rotatable=0;whiteSpace=wrap;html=1;" vertex="1" parent="4FmKSRbF8LB5oElhuLOY-11">
          <mxGeometry y="210" width="200" height="30" as="geometry" />
        </mxCell>
        <mxCell id="4FmKSRbF8LB5oElhuLOY-19" value="WeekOfYear" style="text;strokeColor=none;fillColor=none;align=left;verticalAlign=middle;spacingLeft=4;spacingRight=4;overflow=hidden;points=[[0,0.5],[1,0.5]];portConstraint=eastwest;rotatable=0;whiteSpace=wrap;html=1;" vertex="1" parent="4FmKSRbF8LB5oElhuLOY-11">
          <mxGeometry y="240" width="200" height="30" as="geometry" />
        </mxCell>
        <mxCell id="4FmKSRbF8LB5oElhuLOY-20" value="WeekOfMonth" style="text;strokeColor=none;fillColor=none;align=left;verticalAlign=middle;spacingLeft=4;spacingRight=4;overflow=hidden;points=[[0,0.5],[1,0.5]];portConstraint=eastwest;rotatable=0;whiteSpace=wrap;html=1;" vertex="1" parent="4FmKSRbF8LB5oElhuLOY-11">
          <mxGeometry y="270" width="200" height="30" as="geometry" />
        </mxCell>
        <mxCell id="4FmKSRbF8LB5oElhuLOY-21" value="Month" style="text;strokeColor=none;fillColor=none;align=left;verticalAlign=middle;spacingLeft=4;spacingRight=4;overflow=hidden;points=[[0,0.5],[1,0.5]];portConstraint=eastwest;rotatable=0;whiteSpace=wrap;html=1;" vertex="1" parent="4FmKSRbF8LB5oElhuLOY-11">
          <mxGeometry y="300" width="200" height="30" as="geometry" />
        </mxCell>
        <mxCell id="4FmKSRbF8LB5oElhuLOY-22" value="MonthName" style="text;strokeColor=none;fillColor=none;align=left;verticalAlign=middle;spacingLeft=4;spacingRight=4;overflow=hidden;points=[[0,0.5],[1,0.5]];portConstraint=eastwest;rotatable=0;whiteSpace=wrap;html=1;" vertex="1" parent="4FmKSRbF8LB5oElhuLOY-11">
          <mxGeometry y="330" width="200" height="30" as="geometry" />
        </mxCell>
        <mxCell id="4FmKSRbF8LB5oElhuLOY-23" value="Quarter" style="text;strokeColor=none;fillColor=none;align=left;verticalAlign=middle;spacingLeft=4;spacingRight=4;overflow=hidden;points=[[0,0.5],[1,0.5]];portConstraint=eastwest;rotatable=0;whiteSpace=wrap;html=1;" vertex="1" parent="4FmKSRbF8LB5oElhuLOY-11">
          <mxGeometry y="360" width="200" height="30" as="geometry" />
        </mxCell>
        <mxCell id="4FmKSRbF8LB5oElhuLOY-24" value="QuarterName" style="text;strokeColor=none;fillColor=none;align=left;verticalAlign=middle;spacingLeft=4;spacingRight=4;overflow=hidden;points=[[0,0.5],[1,0.5]];portConstraint=eastwest;rotatable=0;whiteSpace=wrap;html=1;" vertex="1" parent="4FmKSRbF8LB5oElhuLOY-11">
          <mxGeometry y="390" width="200" height="30" as="geometry" />
        </mxCell>
        <mxCell id="4FmKSRbF8LB5oElhuLOY-25" value="Year" style="text;strokeColor=none;fillColor=none;align=left;verticalAlign=middle;spacingLeft=4;spacingRight=4;overflow=hidden;points=[[0,0.5],[1,0.5]];portConstraint=eastwest;rotatable=0;whiteSpace=wrap;html=1;" vertex="1" parent="4FmKSRbF8LB5oElhuLOY-11">
          <mxGeometry y="420" width="200" height="30" as="geometry" />
        </mxCell>
        <mxCell id="4FmKSRbF8LB5oElhuLOY-26" value="StandardDate" style="text;strokeColor=none;fillColor=none;align=left;verticalAlign=middle;spacingLeft=4;spacingRight=4;overflow=hidden;points=[[0,0.5],[1,0.5]];portConstraint=eastwest;rotatable=0;whiteSpace=wrap;html=1;" vertex="1" parent="4FmKSRbF8LB5oElhuLOY-11">
          <mxGeometry y="450" width="200" height="30" as="geometry" />
        </mxCell>
        <mxCell id="4FmKSRbF8LB5oElhuLOY-27" value="HolidayText" style="text;strokeColor=none;fillColor=none;align=left;verticalAlign=middle;spacingLeft=4;spacingRight=4;overflow=hidden;points=[[0,0.5],[1,0.5]];portConstraint=eastwest;rotatable=0;whiteSpace=wrap;html=1;" vertex="1" parent="4FmKSRbF8LB5oElhuLOY-11">
          <mxGeometry y="480" width="200" height="30" as="geometry" />
        </mxCell>
        <mxCell id="4FmKSRbF8LB5oElhuLOY-28" value="FiscalDay" style="text;strokeColor=none;fillColor=none;align=left;verticalAlign=middle;spacingLeft=4;spacingRight=4;overflow=hidden;points=[[0,0.5],[1,0.5]];portConstraint=eastwest;rotatable=0;whiteSpace=wrap;html=1;" vertex="1" parent="4FmKSRbF8LB5oElhuLOY-11">
          <mxGeometry y="510" width="200" height="30" as="geometry" />
        </mxCell>
        <mxCell id="4FmKSRbF8LB5oElhuLOY-29" value="FiscalMonth" style="text;strokeColor=none;fillColor=none;align=left;verticalAlign=middle;spacingLeft=4;spacingRight=4;overflow=hidden;points=[[0,0.5],[1,0.5]];portConstraint=eastwest;rotatable=0;whiteSpace=wrap;html=1;" vertex="1" parent="4FmKSRbF8LB5oElhuLOY-11">
          <mxGeometry y="540" width="200" height="30" as="geometry" />
        </mxCell>
        <mxCell id="4FmKSRbF8LB5oElhuLOY-30" value="FiscalMonthName" style="text;strokeColor=none;fillColor=none;align=left;verticalAlign=middle;spacingLeft=4;spacingRight=4;overflow=hidden;points=[[0,0.5],[1,0.5]];portConstraint=eastwest;rotatable=0;whiteSpace=wrap;html=1;" vertex="1" parent="4FmKSRbF8LB5oElhuLOY-11">
          <mxGeometry y="570" width="200" height="30" as="geometry" />
        </mxCell>
        <mxCell id="4FmKSRbF8LB5oElhuLOY-31" value="FiscalQuarter" style="text;strokeColor=none;fillColor=none;align=left;verticalAlign=middle;spacingLeft=4;spacingRight=4;overflow=hidden;points=[[0,0.5],[1,0.5]];portConstraint=eastwest;rotatable=0;whiteSpace=wrap;html=1;" vertex="1" parent="4FmKSRbF8LB5oElhuLOY-11">
          <mxGeometry y="600" width="200" height="30" as="geometry" />
        </mxCell>
        <mxCell id="4FmKSRbF8LB5oElhuLOY-32" value="FiscalQuarterName" style="text;strokeColor=none;fillColor=none;align=left;verticalAlign=middle;spacingLeft=4;spacingRight=4;overflow=hidden;points=[[0,0.5],[1,0.5]];portConstraint=eastwest;rotatable=0;whiteSpace=wrap;html=1;" vertex="1" parent="4FmKSRbF8LB5oElhuLOY-11">
          <mxGeometry y="630" width="200" height="30" as="geometry" />
        </mxCell>
        <mxCell id="4FmKSRbF8LB5oElhuLOY-33" value="FiscalYear" style="text;strokeColor=none;fillColor=none;align=left;verticalAlign=middle;spacingLeft=4;spacingRight=4;overflow=hidden;points=[[0,0.5],[1,0.5]];portConstraint=eastwest;rotatable=0;whiteSpace=wrap;html=1;" vertex="1" parent="4FmKSRbF8LB5oElhuLOY-11">
          <mxGeometry y="660" width="200" height="30" as="geometry" />
        </mxCell>
        <mxCell id="4FmKSRbF8LB5oElhuLOY-40" value="&lt;b&gt;&lt;font style=&quot;font-size: 14px;&quot;&gt;Dim_Instructors&lt;/font&gt;&lt;/b&gt;" style="swimlane;fontStyle=0;childLayout=stackLayout;horizontal=1;startSize=30;horizontalStack=0;resizeParent=1;resizeParentMax=0;resizeLast=0;collapsible=1;marginBottom=0;whiteSpace=wrap;html=1;fillColor=#B0E3E6;" vertex="1" parent="1">
          <mxGeometry x="1210" y="490" width="180" height="690" as="geometry">
            <mxRectangle x="60" y="110" width="60" height="30" as="alternateBounds" />
          </mxGeometry>
        </mxCell>
        <mxCell id="4FmKSRbF8LB5oElhuLOY-41" value="Inst_ID_SK" style="text;strokeColor=none;fillColor=#F8CECC;align=left;verticalAlign=middle;spacingLeft=4;spacingRight=4;overflow=hidden;points=[[0,0.5],[1,0.5]];portConstraint=eastwest;rotatable=0;whiteSpace=wrap;html=1;" vertex="1" parent="4FmKSRbF8LB5oElhuLOY-40">
          <mxGeometry y="30" width="180" height="30" as="geometry" />
        </mxCell>
        <mxCell id="4FmKSRbF8LB5oElhuLOY-42" value="Inst_ID_BK" style="text;strokeColor=none;fillColor=#FFF2CC;align=left;verticalAlign=middle;spacingLeft=4;spacingRight=4;overflow=hidden;points=[[0,0.5],[1,0.5]];portConstraint=eastwest;rotatable=0;whiteSpace=wrap;html=1;" vertex="1" parent="4FmKSRbF8LB5oElhuLOY-40">
          <mxGeometry y="60" width="180" height="30" as="geometry" />
        </mxCell>
        <mxCell id="4FmKSRbF8LB5oElhuLOY-55" value="Branch_ID_FK" style="text;strokeColor=none;fillColor=#FFF2CC;align=left;verticalAlign=middle;spacingLeft=4;spacingRight=4;overflow=hidden;points=[[0,0.5],[1,0.5]];portConstraint=eastwest;rotatable=0;whiteSpace=wrap;html=1;" vertex="1" parent="4FmKSRbF8LB5oElhuLOY-40">
          <mxGeometry y="90" width="180" height="30" as="geometry" />
        </mxCell>
        <mxCell id="4FmKSRbF8LB5oElhuLOY-56" value="Phone_BK" style="text;strokeColor=none;fillColor=#FFF2CC;align=left;verticalAlign=middle;spacingLeft=4;spacingRight=4;overflow=hidden;points=[[0,0.5],[1,0.5]];portConstraint=eastwest;rotatable=0;whiteSpace=wrap;html=1;" vertex="1" parent="4FmKSRbF8LB5oElhuLOY-40">
          <mxGeometry y="120" width="180" height="30" as="geometry" />
        </mxCell>
        <mxCell id="4FmKSRbF8LB5oElhuLOY-57" value="ZipCode_BK" style="text;strokeColor=none;fillColor=#FFF2CC;align=left;verticalAlign=middle;spacingLeft=4;spacingRight=4;overflow=hidden;points=[[0,0.5],[1,0.5]];portConstraint=eastwest;rotatable=0;whiteSpace=wrap;html=1;" vertex="1" parent="4FmKSRbF8LB5oElhuLOY-40">
          <mxGeometry y="150" width="180" height="30" as="geometry" />
        </mxCell>
        <mxCell id="4FmKSRbF8LB5oElhuLOY-43" value="Inst_Fname" style="text;strokeColor=none;fillColor=none;align=left;verticalAlign=middle;spacingLeft=4;spacingRight=4;overflow=hidden;points=[[0,0.5],[1,0.5]];portConstraint=eastwest;rotatable=0;whiteSpace=wrap;html=1;" vertex="1" parent="4FmKSRbF8LB5oElhuLOY-40">
          <mxGeometry y="180" width="180" height="30" as="geometry" />
        </mxCell>
        <mxCell id="4FmKSRbF8LB5oElhuLOY-44" value="Inst_Lname" style="text;strokeColor=none;fillColor=none;align=left;verticalAlign=middle;spacingLeft=4;spacingRight=4;overflow=hidden;points=[[0,0.5],[1,0.5]];portConstraint=eastwest;rotatable=0;whiteSpace=wrap;html=1;" vertex="1" parent="4FmKSRbF8LB5oElhuLOY-40">
          <mxGeometry y="210" width="180" height="30" as="geometry" />
        </mxCell>
        <mxCell id="4FmKSRbF8LB5oElhuLOY-45" value="Inst_Salary" style="text;strokeColor=none;fillColor=none;align=left;verticalAlign=middle;spacingLeft=4;spacingRight=4;overflow=hidden;points=[[0,0.5],[1,0.5]];portConstraint=eastwest;rotatable=0;whiteSpace=wrap;html=1;" vertex="1" parent="4FmKSRbF8LB5oElhuLOY-40">
          <mxGeometry y="240" width="180" height="30" as="geometry" />
        </mxCell>
        <mxCell id="4FmKSRbF8LB5oElhuLOY-46" value="Inst_Gender" style="text;strokeColor=none;fillColor=none;align=left;verticalAlign=middle;spacingLeft=4;spacingRight=4;overflow=hidden;points=[[0,0.5],[1,0.5]];portConstraint=eastwest;rotatable=0;whiteSpace=wrap;html=1;" vertex="1" parent="4FmKSRbF8LB5oElhuLOY-40">
          <mxGeometry y="270" width="180" height="30" as="geometry" />
        </mxCell>
        <mxCell id="4FmKSRbF8LB5oElhuLOY-47" value="Inst_Birthdate" style="text;strokeColor=none;fillColor=none;align=left;verticalAlign=middle;spacingLeft=4;spacingRight=4;overflow=hidden;points=[[0,0.5],[1,0.5]];portConstraint=eastwest;rotatable=0;whiteSpace=wrap;html=1;" vertex="1" parent="4FmKSRbF8LB5oElhuLOY-40">
          <mxGeometry y="300" width="180" height="30" as="geometry" />
        </mxCell>
        <mxCell id="4FmKSRbF8LB5oElhuLOY-48" value="Inst_Age" style="text;strokeColor=none;fillColor=none;align=left;verticalAlign=middle;spacingLeft=4;spacingRight=4;overflow=hidden;points=[[0,0.5],[1,0.5]];portConstraint=eastwest;rotatable=0;whiteSpace=wrap;html=1;" vertex="1" parent="4FmKSRbF8LB5oElhuLOY-40">
          <mxGeometry y="330" width="180" height="30" as="geometry" />
        </mxCell>
        <mxCell id="4FmKSRbF8LB5oElhuLOY-49" value="Inst_HiringDate" style="text;strokeColor=none;fillColor=none;align=left;verticalAlign=middle;spacingLeft=4;spacingRight=4;overflow=hidden;points=[[0,0.5],[1,0.5]];portConstraint=eastwest;rotatable=0;whiteSpace=wrap;html=1;" vertex="1" parent="4FmKSRbF8LB5oElhuLOY-40">
          <mxGeometry y="360" width="180" height="30" as="geometry" />
        </mxCell>
        <mxCell id="4FmKSRbF8LB5oElhuLOY-50" value="Inst_Position" style="text;strokeColor=none;fillColor=none;align=left;verticalAlign=middle;spacingLeft=4;spacingRight=4;overflow=hidden;points=[[0,0.5],[1,0.5]];portConstraint=eastwest;rotatable=0;whiteSpace=wrap;html=1;" vertex="1" parent="4FmKSRbF8LB5oElhuLOY-40">
          <mxGeometry y="390" width="180" height="30" as="geometry" />
        </mxCell>
        <mxCell id="4FmKSRbF8LB5oElhuLOY-51" value="Inst_Degree" style="text;strokeColor=none;fillColor=none;align=left;verticalAlign=middle;spacingLeft=4;spacingRight=4;overflow=hidden;points=[[0,0.5],[1,0.5]];portConstraint=eastwest;rotatable=0;whiteSpace=wrap;html=1;" vertex="1" parent="4FmKSRbF8LB5oElhuLOY-40">
          <mxGeometry y="420" width="180" height="30" as="geometry" />
        </mxCell>
        <mxCell id="4FmKSRbF8LB5oElhuLOY-52" value="Inst_Experience_Year" style="text;strokeColor=none;fillColor=none;align=left;verticalAlign=middle;spacingLeft=4;spacingRight=4;overflow=hidden;points=[[0,0.5],[1,0.5]];portConstraint=eastwest;rotatable=0;whiteSpace=wrap;html=1;" vertex="1" parent="4FmKSRbF8LB5oElhuLOY-40">
          <mxGeometry y="450" width="180" height="30" as="geometry" />
        </mxCell>
        <mxCell id="4FmKSRbF8LB5oElhuLOY-53" value="Inst_Email" style="text;strokeColor=none;fillColor=none;align=left;verticalAlign=middle;spacingLeft=4;spacingRight=4;overflow=hidden;points=[[0,0.5],[1,0.5]];portConstraint=eastwest;rotatable=0;whiteSpace=wrap;html=1;" vertex="1" parent="4FmKSRbF8LB5oElhuLOY-40">
          <mxGeometry y="480" width="180" height="30" as="geometry" />
        </mxCell>
        <mxCell id="4FmKSRbF8LB5oElhuLOY-54" value="Manager_ID" style="text;strokeColor=none;fillColor=none;align=left;verticalAlign=middle;spacingLeft=4;spacingRight=4;overflow=hidden;points=[[0,0.5],[1,0.5]];portConstraint=eastwest;rotatable=0;whiteSpace=wrap;html=1;" vertex="1" parent="4FmKSRbF8LB5oElhuLOY-40">
          <mxGeometry y="510" width="180" height="30" as="geometry" />
        </mxCell>
        <mxCell id="4FmKSRbF8LB5oElhuLOY-58" value="City" style="text;strokeColor=none;fillColor=none;align=left;verticalAlign=middle;spacingLeft=4;spacingRight=4;overflow=hidden;points=[[0,0.5],[1,0.5]];portConstraint=eastwest;rotatable=0;whiteSpace=wrap;html=1;" vertex="1" parent="4FmKSRbF8LB5oElhuLOY-40">
          <mxGeometry y="540" width="180" height="30" as="geometry" />
        </mxCell>
        <mxCell id="4FmKSRbF8LB5oElhuLOY-59" value="Street" style="text;strokeColor=none;fillColor=none;align=left;verticalAlign=middle;spacingLeft=4;spacingRight=4;overflow=hidden;points=[[0,0.5],[1,0.5]];portConstraint=eastwest;rotatable=0;whiteSpace=wrap;html=1;" vertex="1" parent="4FmKSRbF8LB5oElhuLOY-40">
          <mxGeometry y="570" width="180" height="30" as="geometry" />
        </mxCell>
        <mxCell id="4FmKSRbF8LB5oElhuLOY-60" value="start_date" style="text;strokeColor=none;fillColor=none;align=left;verticalAlign=middle;spacingLeft=4;spacingRight=4;overflow=hidden;points=[[0,0.5],[1,0.5]];portConstraint=eastwest;rotatable=0;whiteSpace=wrap;html=1;" vertex="1" parent="4FmKSRbF8LB5oElhuLOY-40">
          <mxGeometry y="600" width="180" height="30" as="geometry" />
        </mxCell>
        <mxCell id="4FmKSRbF8LB5oElhuLOY-61" value="end_date" style="text;strokeColor=none;fillColor=none;align=left;verticalAlign=middle;spacingLeft=4;spacingRight=4;overflow=hidden;points=[[0,0.5],[1,0.5]];portConstraint=eastwest;rotatable=0;whiteSpace=wrap;html=1;" vertex="1" parent="4FmKSRbF8LB5oElhuLOY-40">
          <mxGeometry y="630" width="180" height="30" as="geometry" />
        </mxCell>
        <mxCell id="4FmKSRbF8LB5oElhuLOY-62" value="is_current" style="text;strokeColor=none;fillColor=none;align=left;verticalAlign=middle;spacingLeft=4;spacingRight=4;overflow=hidden;points=[[0,0.5],[1,0.5]];portConstraint=eastwest;rotatable=0;whiteSpace=wrap;html=1;" vertex="1" parent="4FmKSRbF8LB5oElhuLOY-40">
          <mxGeometry y="660" width="180" height="30" as="geometry" />
        </mxCell>
        <mxCell id="4FmKSRbF8LB5oElhuLOY-63" value="&lt;b&gt;&lt;font style=&quot;font-size: 14px;&quot;&gt;Dim_Graduates&lt;/font&gt;&lt;/b&gt;" style="swimlane;fontStyle=0;childLayout=stackLayout;horizontal=1;startSize=30;horizontalStack=0;resizeParent=1;resizeParentMax=0;resizeLast=0;collapsible=1;marginBottom=0;whiteSpace=wrap;html=1;fillColor=#B0E3E6;" vertex="1" parent="1">
          <mxGeometry x="170" y="810" width="210" height="640" as="geometry">
            <mxRectangle x="60" y="110" width="60" height="30" as="alternateBounds" />
          </mxGeometry>
        </mxCell>
        <mxCell id="4FmKSRbF8LB5oElhuLOY-64" value="Graduate_ID_SK" style="text;strokeColor=none;fillColor=#F8CECC;align=left;verticalAlign=middle;spacingLeft=4;spacingRight=4;overflow=hidden;points=[[0,0.5],[1,0.5]];portConstraint=eastwest;rotatable=0;whiteSpace=wrap;html=1;" vertex="1" parent="4FmKSRbF8LB5oElhuLOY-63">
          <mxGeometry y="30" width="210" height="40" as="geometry" />
        </mxCell>
        <mxCell id="4FmKSRbF8LB5oElhuLOY-65" value="Graduate_ID_BK" style="text;strokeColor=none;fillColor=#FFF2CC;align=left;verticalAlign=middle;spacingLeft=4;spacingRight=4;overflow=hidden;points=[[0,0.5],[1,0.5]];portConstraint=eastwest;rotatable=0;whiteSpace=wrap;html=1;" vertex="1" parent="4FmKSRbF8LB5oElhuLOY-63">
          <mxGeometry y="70" width="210" height="30" as="geometry" />
        </mxCell>
        <mxCell id="4FmKSRbF8LB5oElhuLOY-75" value="Graduate_Phone_BK" style="text;strokeColor=none;fillColor=#FFF2CC;align=left;verticalAlign=middle;spacingLeft=4;spacingRight=4;overflow=hidden;points=[[0,0.5],[1,0.5]];portConstraint=eastwest;rotatable=0;whiteSpace=wrap;html=1;" vertex="1" parent="4FmKSRbF8LB5oElhuLOY-63">
          <mxGeometry y="100" width="210" height="30" as="geometry" />
        </mxCell>
        <mxCell id="4FmKSRbF8LB5oElhuLOY-77" value="Company_code_BK" style="text;strokeColor=none;fillColor=#FFF2CC;align=left;verticalAlign=middle;spacingLeft=4;spacingRight=4;overflow=hidden;points=[[0,0.5],[1,0.5]];portConstraint=eastwest;rotatable=0;whiteSpace=wrap;html=1;" vertex="1" parent="4FmKSRbF8LB5oElhuLOY-63">
          <mxGeometry y="130" width="210" height="30" as="geometry" />
        </mxCell>
        <mxCell id="4FmKSRbF8LB5oElhuLOY-66" value="Graduate_Fname" style="text;strokeColor=none;fillColor=none;align=left;verticalAlign=middle;spacingLeft=4;spacingRight=4;overflow=hidden;points=[[0,0.5],[1,0.5]];portConstraint=eastwest;rotatable=0;whiteSpace=wrap;html=1;" vertex="1" parent="4FmKSRbF8LB5oElhuLOY-63">
          <mxGeometry y="160" width="210" height="30" as="geometry" />
        </mxCell>
        <mxCell id="4FmKSRbF8LB5oElhuLOY-67" value="Graduate_Lname" style="text;strokeColor=none;fillColor=none;align=left;verticalAlign=middle;spacingLeft=4;spacingRight=4;overflow=hidden;points=[[0,0.5],[1,0.5]];portConstraint=eastwest;rotatable=0;whiteSpace=wrap;html=1;" vertex="1" parent="4FmKSRbF8LB5oElhuLOY-63">
          <mxGeometry y="190" width="210" height="30" as="geometry" />
        </mxCell>
        <mxCell id="4FmKSRbF8LB5oElhuLOY-68" value="Graduate_Gender" style="text;strokeColor=none;fillColor=none;align=left;verticalAlign=middle;spacingLeft=4;spacingRight=4;overflow=hidden;points=[[0,0.5],[1,0.5]];portConstraint=eastwest;rotatable=0;whiteSpace=wrap;html=1;" vertex="1" parent="4FmKSRbF8LB5oElhuLOY-63">
          <mxGeometry y="220" width="210" height="30" as="geometry" />
        </mxCell>
        <mxCell id="4FmKSRbF8LB5oElhuLOY-69" value="Graduate_Certification" style="text;strokeColor=none;fillColor=none;align=left;verticalAlign=middle;spacingLeft=4;spacingRight=4;overflow=hidden;points=[[0,0.5],[1,0.5]];portConstraint=eastwest;rotatable=0;whiteSpace=wrap;html=1;" vertex="1" parent="4FmKSRbF8LB5oElhuLOY-63">
          <mxGeometry y="250" width="210" height="30" as="geometry" />
        </mxCell>
        <mxCell id="4FmKSRbF8LB5oElhuLOY-70" value="Graduate_Job_Title" style="text;strokeColor=none;fillColor=none;align=left;verticalAlign=middle;spacingLeft=4;spacingRight=4;overflow=hidden;points=[[0,0.5],[1,0.5]];portConstraint=eastwest;rotatable=0;whiteSpace=wrap;html=1;" vertex="1" parent="4FmKSRbF8LB5oElhuLOY-63">
          <mxGeometry y="280" width="210" height="30" as="geometry" />
        </mxCell>
        <mxCell id="4FmKSRbF8LB5oElhuLOY-71" value="Graduate_Job_Type" style="text;strokeColor=none;fillColor=none;align=left;verticalAlign=middle;spacingLeft=4;spacingRight=4;overflow=hidden;points=[[0,0.5],[1,0.5]];portConstraint=eastwest;rotatable=0;whiteSpace=wrap;html=1;" vertex="1" parent="4FmKSRbF8LB5oElhuLOY-63">
          <mxGeometry y="310" width="210" height="30" as="geometry" />
        </mxCell>
        <mxCell id="4FmKSRbF8LB5oElhuLOY-72" value="Graduate_Hired_Date" style="text;strokeColor=none;fillColor=none;align=left;verticalAlign=middle;spacingLeft=4;spacingRight=4;overflow=hidden;points=[[0,0.5],[1,0.5]];portConstraint=eastwest;rotatable=0;whiteSpace=wrap;html=1;" vertex="1" parent="4FmKSRbF8LB5oElhuLOY-63">
          <mxGeometry y="340" width="210" height="30" as="geometry" />
        </mxCell>
        <mxCell id="4FmKSRbF8LB5oElhuLOY-73" value="Graduate_Salary" style="text;strokeColor=none;fillColor=none;align=left;verticalAlign=middle;spacingLeft=4;spacingRight=4;overflow=hidden;points=[[0,0.5],[1,0.5]];portConstraint=eastwest;rotatable=0;whiteSpace=wrap;html=1;" vertex="1" parent="4FmKSRbF8LB5oElhuLOY-63">
          <mxGeometry y="370" width="210" height="30" as="geometry" />
        </mxCell>
        <mxCell id="4FmKSRbF8LB5oElhuLOY-104" value="ITI_Graduation_Year" style="text;strokeColor=none;fillColor=none;align=left;verticalAlign=middle;spacingLeft=4;spacingRight=4;overflow=hidden;points=[[0,0.5],[1,0.5]];portConstraint=eastwest;rotatable=0;whiteSpace=wrap;html=1;" vertex="1" parent="4FmKSRbF8LB5oElhuLOY-63">
          <mxGeometry y="400" width="210" height="30" as="geometry" />
        </mxCell>
        <mxCell id="4FmKSRbF8LB5oElhuLOY-74" value="Track_ID" style="text;strokeColor=none;fillColor=none;align=left;verticalAlign=middle;spacingLeft=4;spacingRight=4;overflow=hidden;points=[[0,0.5],[1,0.5]];portConstraint=eastwest;rotatable=0;whiteSpace=wrap;html=1;" vertex="1" parent="4FmKSRbF8LB5oElhuLOY-63">
          <mxGeometry y="430" width="210" height="30" as="geometry" />
        </mxCell>
        <mxCell id="4FmKSRbF8LB5oElhuLOY-76" value="FailReasons" style="text;strokeColor=none;fillColor=#FFFFFF;align=left;verticalAlign=middle;spacingLeft=4;spacingRight=4;overflow=hidden;points=[[0,0.5],[1,0.5]];portConstraint=eastwest;rotatable=0;whiteSpace=wrap;html=1;" vertex="1" parent="4FmKSRbF8LB5oElhuLOY-63">
          <mxGeometry y="460" width="210" height="30" as="geometry" />
        </mxCell>
        <mxCell id="4FmKSRbF8LB5oElhuLOY-78" value="Company_name" style="text;strokeColor=none;fillColor=none;align=left;verticalAlign=middle;spacingLeft=4;spacingRight=4;overflow=hidden;points=[[0,0.5],[1,0.5]];portConstraint=eastwest;rotatable=0;whiteSpace=wrap;html=1;" vertex="1" parent="4FmKSRbF8LB5oElhuLOY-63">
          <mxGeometry y="490" width="210" height="30" as="geometry" />
        </mxCell>
        <mxCell id="4FmKSRbF8LB5oElhuLOY-79" value="Company_Location" style="text;strokeColor=none;fillColor=none;align=left;verticalAlign=middle;spacingLeft=4;spacingRight=4;overflow=hidden;points=[[0,0.5],[1,0.5]];portConstraint=eastwest;rotatable=0;whiteSpace=wrap;html=1;" vertex="1" parent="4FmKSRbF8LB5oElhuLOY-63">
          <mxGeometry y="520" width="210" height="30" as="geometry" />
        </mxCell>
        <mxCell id="4FmKSRbF8LB5oElhuLOY-80" value="start_date" style="text;strokeColor=none;fillColor=none;align=left;verticalAlign=middle;spacingLeft=4;spacingRight=4;overflow=hidden;points=[[0,0.5],[1,0.5]];portConstraint=eastwest;rotatable=0;whiteSpace=wrap;html=1;" vertex="1" parent="4FmKSRbF8LB5oElhuLOY-63">
          <mxGeometry y="550" width="210" height="30" as="geometry" />
        </mxCell>
        <mxCell id="4FmKSRbF8LB5oElhuLOY-81" value="end_date" style="text;strokeColor=none;fillColor=none;align=left;verticalAlign=middle;spacingLeft=4;spacingRight=4;overflow=hidden;points=[[0,0.5],[1,0.5]];portConstraint=eastwest;rotatable=0;whiteSpace=wrap;html=1;" vertex="1" parent="4FmKSRbF8LB5oElhuLOY-63">
          <mxGeometry y="580" width="210" height="30" as="geometry" />
        </mxCell>
        <mxCell id="4FmKSRbF8LB5oElhuLOY-82" value="is_current" style="text;strokeColor=none;fillColor=none;align=left;verticalAlign=middle;spacingLeft=4;spacingRight=4;overflow=hidden;points=[[0,0.5],[1,0.5]];portConstraint=eastwest;rotatable=0;whiteSpace=wrap;html=1;" vertex="1" parent="4FmKSRbF8LB5oElhuLOY-63">
          <mxGeometry y="610" width="210" height="30" as="geometry" />
        </mxCell>
        <mxCell id="4FmKSRbF8LB5oElhuLOY-109" value="&lt;font style=&quot;font-size: 14px;&quot;&gt;&lt;b&gt;Dim-Courses&lt;/b&gt;&lt;/font&gt;" style="swimlane;fontStyle=0;childLayout=stackLayout;horizontal=1;startSize=30;horizontalStack=0;resizeParent=1;resizeParentMax=0;resizeLast=0;collapsible=1;marginBottom=0;whiteSpace=wrap;html=1;movable=1;resizable=1;rotatable=1;deletable=1;editable=1;locked=0;connectable=1;labelBackgroundColor=none;fillColor=#B0E3E6;strokeColor=#E07A5F;fontColor=#000000;" vertex="1" parent="1">
          <mxGeometry x="880" y="850" width="210" height="376" as="geometry">
            <mxRectangle x="460" y="70" width="110" height="30" as="alternateBounds" />
          </mxGeometry>
        </mxCell>
        <mxCell id="4FmKSRbF8LB5oElhuLOY-110" value="Course_ID_SK" style="text;align=left;verticalAlign=top;spacingLeft=4;spacingRight=4;overflow=hidden;rotatable=0;points=[[0,0.5],[1,0.5]];portConstraint=eastwest;fillColor=#F8CECC;strokeColor=#6c8ebf;" vertex="1" parent="4FmKSRbF8LB5oElhuLOY-109">
          <mxGeometry y="30" width="210" height="26" as="geometry" />
        </mxCell>
        <mxCell id="4FmKSRbF8LB5oElhuLOY-111" value="Course_ID_BK" style="text;align=left;verticalAlign=top;spacingLeft=4;spacingRight=4;overflow=hidden;rotatable=0;points=[[0,0.5],[1,0.5]];portConstraint=eastwest;fillColor=#FFF2CC;strokeColor=#6c8ebf;" vertex="1" parent="4FmKSRbF8LB5oElhuLOY-109">
          <mxGeometry y="56" width="210" height="26" as="geometry" />
        </mxCell>
        <mxCell id="4FmKSRbF8LB5oElhuLOY-125" value="&amp;nbsp;Inst_ID_FK" style="text;html=1;align=left;verticalAlign=middle;resizable=0;points=[];autosize=1;strokeColor=none;fillColor=#FFF2CC;" vertex="1" parent="4FmKSRbF8LB5oElhuLOY-109">
          <mxGeometry y="82" width="210" height="30" as="geometry" />
        </mxCell>
        <mxCell id="4FmKSRbF8LB5oElhuLOY-116" value="Course_Name" style="text;align=left;verticalAlign=top;spacingLeft=4;spacingRight=4;overflow=hidden;rotatable=0;points=[[0,0.5],[1,0.5]];portConstraint=eastwest;" vertex="1" parent="4FmKSRbF8LB5oElhuLOY-109">
          <mxGeometry y="112" width="210" height="24" as="geometry" />
        </mxCell>
        <mxCell id="4FmKSRbF8LB5oElhuLOY-117" value="&amp;nbsp;Course_Status" style="text;html=1;align=left;verticalAlign=middle;resizable=0;points=[];autosize=1;strokeColor=none;fillColor=none;" vertex="1" parent="4FmKSRbF8LB5oElhuLOY-109">
          <mxGeometry y="136" width="210" height="30" as="geometry" />
        </mxCell>
        <mxCell id="4FmKSRbF8LB5oElhuLOY-118" value="&amp;nbsp;Course_Duration" style="text;html=1;align=left;verticalAlign=middle;resizable=0;points=[];autosize=1;strokeColor=none;fillColor=none;" vertex="1" parent="4FmKSRbF8LB5oElhuLOY-109">
          <mxGeometry y="166" width="210" height="30" as="geometry" />
        </mxCell>
        <mxCell id="4FmKSRbF8LB5oElhuLOY-120" value="&amp;nbsp;Course_Evaluation" style="text;html=1;align=left;verticalAlign=middle;resizable=0;points=[];autosize=1;strokeColor=none;fillColor=none;" vertex="1" parent="4FmKSRbF8LB5oElhuLOY-109">
          <mxGeometry y="196" width="210" height="30" as="geometry" />
        </mxCell>
        <mxCell id="4FmKSRbF8LB5oElhuLOY-119" value="&amp;nbsp;Topic_ID_BK" style="text;html=1;align=left;verticalAlign=middle;resizable=0;points=[];autosize=1;strokeColor=none;fillColor=none;" vertex="1" parent="4FmKSRbF8LB5oElhuLOY-109">
          <mxGeometry y="226" width="210" height="30" as="geometry" />
        </mxCell>
        <mxCell id="4FmKSRbF8LB5oElhuLOY-121" value="&amp;nbsp;Topic_Name" style="text;html=1;align=left;verticalAlign=middle;resizable=0;points=[];autosize=1;strokeColor=none;fillColor=none;" vertex="1" parent="4FmKSRbF8LB5oElhuLOY-109">
          <mxGeometry y="256" width="210" height="30" as="geometry" />
        </mxCell>
        <mxCell id="4FmKSRbF8LB5oElhuLOY-122" value="&amp;nbsp;start_date" style="text;html=1;align=left;verticalAlign=middle;resizable=0;points=[];autosize=1;strokeColor=none;fillColor=none;" vertex="1" parent="4FmKSRbF8LB5oElhuLOY-109">
          <mxGeometry y="286" width="210" height="30" as="geometry" />
        </mxCell>
        <mxCell id="4FmKSRbF8LB5oElhuLOY-123" value="&amp;nbsp;end_date" style="text;html=1;align=left;verticalAlign=middle;resizable=0;points=[];autosize=1;strokeColor=none;fillColor=none;" vertex="1" parent="4FmKSRbF8LB5oElhuLOY-109">
          <mxGeometry y="316" width="210" height="30" as="geometry" />
        </mxCell>
        <mxCell id="4FmKSRbF8LB5oElhuLOY-124" value="&amp;nbsp;is_current" style="text;html=1;align=left;verticalAlign=middle;resizable=0;points=[];autosize=1;strokeColor=none;fillColor=none;" vertex="1" parent="4FmKSRbF8LB5oElhuLOY-109">
          <mxGeometry y="346" width="210" height="30" as="geometry" />
        </mxCell>
        <mxCell id="4FmKSRbF8LB5oElhuLOY-127" value="&lt;b&gt;&lt;font style=&quot;font-size: 14px;&quot;&gt;Dim_Exams&lt;/font&gt;&lt;/b&gt;" style="swimlane;fontStyle=0;childLayout=stackLayout;horizontal=1;startSize=30;horizontalStack=0;resizeParent=1;resizeParentMax=0;resizeLast=0;collapsible=1;marginBottom=0;whiteSpace=wrap;html=1;fillColor=#B0E3E6;" vertex="1" parent="1">
          <mxGeometry x="120" y="360" width="200" height="390" as="geometry">
            <mxRectangle x="60" y="110" width="60" height="30" as="alternateBounds" />
          </mxGeometry>
        </mxCell>
        <mxCell id="4FmKSRbF8LB5oElhuLOY-128" value="Exam_ID_SK" style="text;strokeColor=none;fillColor=#F8CECC;align=left;verticalAlign=middle;spacingLeft=4;spacingRight=4;overflow=hidden;points=[[0,0.5],[1,0.5]];portConstraint=eastwest;rotatable=0;whiteSpace=wrap;html=1;" vertex="1" parent="4FmKSRbF8LB5oElhuLOY-127">
          <mxGeometry y="30" width="200" height="30" as="geometry" />
        </mxCell>
        <mxCell id="4FmKSRbF8LB5oElhuLOY-129" value="Exam_ID_BK" style="text;strokeColor=none;fillColor=#FFF2CC;align=left;verticalAlign=middle;spacingLeft=4;spacingRight=4;overflow=hidden;points=[[0,0.5],[1,0.5]];portConstraint=eastwest;rotatable=0;whiteSpace=wrap;html=1;" vertex="1" parent="4FmKSRbF8LB5oElhuLOY-127">
          <mxGeometry y="60" width="200" height="30" as="geometry" />
        </mxCell>
        <mxCell id="4FmKSRbF8LB5oElhuLOY-130" value="Exam_Level" style="text;strokeColor=none;fillColor=none;align=left;verticalAlign=middle;spacingLeft=4;spacingRight=4;overflow=hidden;points=[[0,0.5],[1,0.5]];portConstraint=eastwest;rotatable=0;whiteSpace=wrap;html=1;" vertex="1" parent="4FmKSRbF8LB5oElhuLOY-127">
          <mxGeometry y="90" width="200" height="30" as="geometry" />
        </mxCell>
        <mxCell id="4FmKSRbF8LB5oElhuLOY-131" value="Exam_Type" style="text;strokeColor=none;fillColor=none;align=left;verticalAlign=middle;spacingLeft=4;spacingRight=4;overflow=hidden;points=[[0,0.5],[1,0.5]];portConstraint=eastwest;rotatable=0;whiteSpace=wrap;html=1;" vertex="1" parent="4FmKSRbF8LB5oElhuLOY-127">
          <mxGeometry y="120" width="200" height="30" as="geometry" />
        </mxCell>
        <mxCell id="4FmKSRbF8LB5oElhuLOY-132" value="Exam_Name" style="text;strokeColor=none;fillColor=none;align=left;verticalAlign=middle;spacingLeft=4;spacingRight=4;overflow=hidden;points=[[0,0.5],[1,0.5]];portConstraint=eastwest;rotatable=0;whiteSpace=wrap;html=1;" vertex="1" parent="4FmKSRbF8LB5oElhuLOY-127">
          <mxGeometry y="150" width="200" height="30" as="geometry" />
        </mxCell>
        <mxCell id="4FmKSRbF8LB5oElhuLOY-133" value="Exam_Date" style="text;strokeColor=none;fillColor=none;align=left;verticalAlign=middle;spacingLeft=4;spacingRight=4;overflow=hidden;points=[[0,0.5],[1,0.5]];portConstraint=eastwest;rotatable=0;whiteSpace=wrap;html=1;" vertex="1" parent="4FmKSRbF8LB5oElhuLOY-127">
          <mxGeometry y="180" width="200" height="30" as="geometry" />
        </mxCell>
        <mxCell id="4FmKSRbF8LB5oElhuLOY-134" value="Exam_Duration" style="text;strokeColor=none;fillColor=none;align=left;verticalAlign=middle;spacingLeft=4;spacingRight=4;overflow=hidden;points=[[0,0.5],[1,0.5]];portConstraint=eastwest;rotatable=0;whiteSpace=wrap;html=1;" vertex="1" parent="4FmKSRbF8LB5oElhuLOY-127">
          <mxGeometry y="210" width="200" height="30" as="geometry" />
        </mxCell>
        <mxCell id="4FmKSRbF8LB5oElhuLOY-135" value="Exam_FullMark" style="text;strokeColor=none;fillColor=none;align=left;verticalAlign=middle;spacingLeft=4;spacingRight=4;overflow=hidden;points=[[0,0.5],[1,0.5]];portConstraint=eastwest;rotatable=0;whiteSpace=wrap;html=1;" vertex="1" parent="4FmKSRbF8LB5oElhuLOY-127">
          <mxGeometry y="240" width="200" height="30" as="geometry" />
        </mxCell>
        <mxCell id="4FmKSRbF8LB5oElhuLOY-136" value="Course_ID" style="text;strokeColor=none;fillColor=none;align=left;verticalAlign=middle;spacingLeft=4;spacingRight=4;overflow=hidden;points=[[0,0.5],[1,0.5]];portConstraint=eastwest;rotatable=0;whiteSpace=wrap;html=1;" vertex="1" parent="4FmKSRbF8LB5oElhuLOY-127">
          <mxGeometry y="270" width="200" height="30" as="geometry" />
        </mxCell>
        <mxCell id="4FmKSRbF8LB5oElhuLOY-143" value="start_date" style="text;strokeColor=none;fillColor=none;align=left;verticalAlign=middle;spacingLeft=4;spacingRight=4;overflow=hidden;points=[[0,0.5],[1,0.5]];portConstraint=eastwest;rotatable=0;whiteSpace=wrap;html=1;" vertex="1" parent="4FmKSRbF8LB5oElhuLOY-127">
          <mxGeometry y="300" width="200" height="30" as="geometry" />
        </mxCell>
        <mxCell id="4FmKSRbF8LB5oElhuLOY-144" value="end_date" style="text;strokeColor=none;fillColor=none;align=left;verticalAlign=middle;spacingLeft=4;spacingRight=4;overflow=hidden;points=[[0,0.5],[1,0.5]];portConstraint=eastwest;rotatable=0;whiteSpace=wrap;html=1;" vertex="1" parent="4FmKSRbF8LB5oElhuLOY-127">
          <mxGeometry y="330" width="200" height="30" as="geometry" />
        </mxCell>
        <mxCell id="4FmKSRbF8LB5oElhuLOY-145" value="is_current" style="text;strokeColor=none;fillColor=none;align=left;verticalAlign=middle;spacingLeft=4;spacingRight=4;overflow=hidden;points=[[0,0.5],[1,0.5]];portConstraint=eastwest;rotatable=0;whiteSpace=wrap;html=1;" vertex="1" parent="4FmKSRbF8LB5oElhuLOY-127">
          <mxGeometry y="360" width="200" height="30" as="geometry" />
        </mxCell>
        <mxCell id="4FmKSRbF8LB5oElhuLOY-146" value="&lt;b&gt;&lt;font style=&quot;font-size: 14px;&quot;&gt;Dim_Questions&lt;/font&gt;&lt;/b&gt;" style="swimlane;fontStyle=0;childLayout=stackLayout;horizontal=1;startSize=30;horizontalStack=0;resizeParent=1;resizeParentMax=0;resizeLast=0;collapsible=1;marginBottom=0;whiteSpace=wrap;html=1;fillColor=#B0E3E6;" vertex="1" parent="1">
          <mxGeometry x="-180" y="360" width="200" height="360" as="geometry">
            <mxRectangle x="60" y="110" width="60" height="30" as="alternateBounds" />
          </mxGeometry>
        </mxCell>
        <mxCell id="4FmKSRbF8LB5oElhuLOY-147" value="Question_ID_SK" style="text;strokeColor=none;fillColor=#F8CECC;align=left;verticalAlign=middle;spacingLeft=4;spacingRight=4;overflow=hidden;points=[[0,0.5],[1,0.5]];portConstraint=eastwest;rotatable=0;whiteSpace=wrap;html=1;" vertex="1" parent="4FmKSRbF8LB5oElhuLOY-146">
          <mxGeometry y="30" width="200" height="30" as="geometry" />
        </mxCell>
        <mxCell id="4FmKSRbF8LB5oElhuLOY-254" value="Question_ID_BK" style="text;strokeColor=none;fillColor=#FFF2CC;align=left;verticalAlign=middle;spacingLeft=4;spacingRight=4;overflow=hidden;points=[[0,0.5],[1,0.5]];portConstraint=eastwest;rotatable=0;whiteSpace=wrap;html=1;" vertex="1" parent="4FmKSRbF8LB5oElhuLOY-146">
          <mxGeometry y="60" width="200" height="30" as="geometry" />
        </mxCell>
        <mxCell id="4FmKSRbF8LB5oElhuLOY-257" value="Exam_ID_FK" style="text;strokeColor=none;fillColor=#FFF2CC;align=left;verticalAlign=middle;spacingLeft=4;spacingRight=4;overflow=hidden;points=[[0,0.5],[1,0.5]];portConstraint=eastwest;rotatable=0;whiteSpace=wrap;html=1;" vertex="1" parent="4FmKSRbF8LB5oElhuLOY-146">
          <mxGeometry y="90" width="200" height="30" as="geometry" />
        </mxCell>
        <mxCell id="4FmKSRbF8LB5oElhuLOY-171" value="Question_Text" style="text;strokeColor=none;fillColor=none;align=left;verticalAlign=middle;spacingLeft=4;spacingRight=4;overflow=hidden;points=[[0,0.5],[1,0.5]];portConstraint=eastwest;rotatable=0;whiteSpace=wrap;html=1;" vertex="1" parent="4FmKSRbF8LB5oElhuLOY-146">
          <mxGeometry y="120" width="200" height="30" as="geometry" />
        </mxCell>
        <mxCell id="4FmKSRbF8LB5oElhuLOY-172" value="CorrectAnswer" style="text;strokeColor=none;fillColor=none;align=left;verticalAlign=middle;spacingLeft=4;spacingRight=4;overflow=hidden;points=[[0,0.5],[1,0.5]];portConstraint=eastwest;rotatable=0;whiteSpace=wrap;html=1;" vertex="1" parent="4FmKSRbF8LB5oElhuLOY-146">
          <mxGeometry y="150" width="200" height="30" as="geometry" />
        </mxCell>
        <mxCell id="4FmKSRbF8LB5oElhuLOY-181" value="Question_Level" style="text;strokeColor=none;fillColor=none;align=left;verticalAlign=middle;spacingLeft=4;spacingRight=4;overflow=hidden;points=[[0,0.5],[1,0.5]];portConstraint=eastwest;rotatable=0;whiteSpace=wrap;html=1;" vertex="1" parent="4FmKSRbF8LB5oElhuLOY-146">
          <mxGeometry y="180" width="200" height="30" as="geometry" />
        </mxCell>
        <mxCell id="4FmKSRbF8LB5oElhuLOY-182" value="Question_Type" style="text;strokeColor=none;fillColor=none;align=left;verticalAlign=middle;spacingLeft=4;spacingRight=4;overflow=hidden;points=[[0,0.5],[1,0.5]];portConstraint=eastwest;rotatable=0;whiteSpace=wrap;html=1;" vertex="1" parent="4FmKSRbF8LB5oElhuLOY-146">
          <mxGeometry y="210" width="200" height="30" as="geometry" />
        </mxCell>
        <mxCell id="4FmKSRbF8LB5oElhuLOY-184" value="Choices" style="text;strokeColor=none;fillColor=none;align=left;verticalAlign=middle;spacingLeft=4;spacingRight=4;overflow=hidden;points=[[0,0.5],[1,0.5]];portConstraint=eastwest;rotatable=0;whiteSpace=wrap;html=1;" vertex="1" parent="4FmKSRbF8LB5oElhuLOY-146">
          <mxGeometry y="240" width="200" height="30" as="geometry" />
        </mxCell>
        <mxCell id="4FmKSRbF8LB5oElhuLOY-162" value="start_date" style="text;strokeColor=none;fillColor=none;align=left;verticalAlign=middle;spacingLeft=4;spacingRight=4;overflow=hidden;points=[[0,0.5],[1,0.5]];portConstraint=eastwest;rotatable=0;whiteSpace=wrap;html=1;" vertex="1" parent="4FmKSRbF8LB5oElhuLOY-146">
          <mxGeometry y="270" width="200" height="30" as="geometry" />
        </mxCell>
        <mxCell id="4FmKSRbF8LB5oElhuLOY-163" value="end_date" style="text;strokeColor=none;fillColor=none;align=left;verticalAlign=middle;spacingLeft=4;spacingRight=4;overflow=hidden;points=[[0,0.5],[1,0.5]];portConstraint=eastwest;rotatable=0;whiteSpace=wrap;html=1;" vertex="1" parent="4FmKSRbF8LB5oElhuLOY-146">
          <mxGeometry y="300" width="200" height="30" as="geometry" />
        </mxCell>
        <mxCell id="4FmKSRbF8LB5oElhuLOY-164" value="is_current" style="text;strokeColor=none;fillColor=none;align=left;verticalAlign=middle;spacingLeft=4;spacingRight=4;overflow=hidden;points=[[0,0.5],[1,0.5]];portConstraint=eastwest;rotatable=0;whiteSpace=wrap;html=1;" vertex="1" parent="4FmKSRbF8LB5oElhuLOY-146">
          <mxGeometry y="330" width="200" height="30" as="geometry" />
        </mxCell>
        <mxCell id="4FmKSRbF8LB5oElhuLOY-187" value="&lt;b&gt;&lt;font style=&quot;font-size: 14px;&quot;&gt;Dim_StudentGrades&lt;/font&gt;&lt;/b&gt;" style="swimlane;fontStyle=0;childLayout=stackLayout;horizontal=1;startSize=30;horizontalStack=0;resizeParent=1;resizeParentMax=0;resizeLast=0;collapsible=1;marginBottom=0;whiteSpace=wrap;html=1;fillColor=#B0E3E6;strokeColor=#000000;" vertex="1" parent="1">
          <mxGeometry x="120" y="-680" width="200" height="270" as="geometry">
            <mxRectangle x="60" y="110" width="60" height="30" as="alternateBounds" />
          </mxGeometry>
        </mxCell>
        <mxCell id="4FmKSRbF8LB5oElhuLOY-188" value="StudentGrades_ID_SK" style="text;strokeColor=none;fillColor=#F8CECC;align=left;verticalAlign=middle;spacingLeft=4;spacingRight=4;overflow=hidden;points=[[0,0.5],[1,0.5]];portConstraint=eastwest;rotatable=0;whiteSpace=wrap;html=1;" vertex="1" parent="4FmKSRbF8LB5oElhuLOY-187">
          <mxGeometry y="30" width="200" height="30" as="geometry" />
        </mxCell>
        <mxCell id="4FmKSRbF8LB5oElhuLOY-189" value="StudentID_FK" style="text;strokeColor=none;fillColor=#FFF2CC;align=left;verticalAlign=middle;spacingLeft=4;spacingRight=4;overflow=hidden;points=[[0,0.5],[1,0.5]];portConstraint=eastwest;rotatable=0;whiteSpace=wrap;html=1;" vertex="1" parent="4FmKSRbF8LB5oElhuLOY-187">
          <mxGeometry y="60" width="200" height="30" as="geometry" />
        </mxCell>
        <mxCell id="4FmKSRbF8LB5oElhuLOY-190" value="Exam_ID" style="text;strokeColor=none;fillColor=none;align=left;verticalAlign=middle;spacingLeft=4;spacingRight=4;overflow=hidden;points=[[0,0.5],[1,0.5]];portConstraint=eastwest;rotatable=0;whiteSpace=wrap;html=1;" vertex="1" parent="4FmKSRbF8LB5oElhuLOY-187">
          <mxGeometry y="90" width="200" height="30" as="geometry" />
        </mxCell>
        <mxCell id="4FmKSRbF8LB5oElhuLOY-191" value="Exam_Precentage" style="text;strokeColor=none;fillColor=none;align=left;verticalAlign=middle;spacingLeft=4;spacingRight=4;overflow=hidden;points=[[0,0.5],[1,0.5]];portConstraint=eastwest;rotatable=0;whiteSpace=wrap;html=1;" vertex="1" parent="4FmKSRbF8LB5oElhuLOY-187">
          <mxGeometry y="120" width="200" height="30" as="geometry" />
        </mxCell>
        <mxCell id="4FmKSRbF8LB5oElhuLOY-192" value="St_Status" style="text;strokeColor=none;fillColor=none;align=left;verticalAlign=middle;spacingLeft=4;spacingRight=4;overflow=hidden;points=[[0,0.5],[1,0.5]];portConstraint=eastwest;rotatable=0;whiteSpace=wrap;html=1;" vertex="1" parent="4FmKSRbF8LB5oElhuLOY-187">
          <mxGeometry y="150" width="200" height="30" as="geometry" />
        </mxCell>
        <mxCell id="4FmKSRbF8LB5oElhuLOY-193" value="end_date" style="text;strokeColor=none;fillColor=none;align=left;verticalAlign=middle;spacingLeft=4;spacingRight=4;overflow=hidden;points=[[0,0.5],[1,0.5]];portConstraint=eastwest;rotatable=0;whiteSpace=wrap;html=1;" vertex="1" parent="4FmKSRbF8LB5oElhuLOY-187">
          <mxGeometry y="180" width="200" height="30" as="geometry" />
        </mxCell>
        <mxCell id="4FmKSRbF8LB5oElhuLOY-194" value="start_date" style="text;strokeColor=none;fillColor=none;align=left;verticalAlign=middle;spacingLeft=4;spacingRight=4;overflow=hidden;points=[[0,0.5],[1,0.5]];portConstraint=eastwest;rotatable=0;whiteSpace=wrap;html=1;" vertex="1" parent="4FmKSRbF8LB5oElhuLOY-187">
          <mxGeometry y="210" width="200" height="30" as="geometry" />
        </mxCell>
        <mxCell id="4FmKSRbF8LB5oElhuLOY-195" value="is_current" style="text;strokeColor=none;fillColor=none;align=left;verticalAlign=middle;spacingLeft=4;spacingRight=4;overflow=hidden;points=[[0,0.5],[1,0.5]];portConstraint=eastwest;rotatable=0;whiteSpace=wrap;html=1;" vertex="1" parent="4FmKSRbF8LB5oElhuLOY-187">
          <mxGeometry y="240" width="200" height="30" as="geometry" />
        </mxCell>
        <mxCell id="4FmKSRbF8LB5oElhuLOY-203" value="" style="endArrow=classic;html=1;rounded=0;exitX=0;exitY=0.5;exitDx=0;exitDy=0;entryX=0.99;entryY=0.733;entryDx=0;entryDy=0;entryPerimeter=0;endFill=1;" edge="1" parent="1" source="Cs5zFBfVpe2Wg-GuBUAb-229" target="4FmKSRbF8LB5oElhuLOY-128">
          <mxGeometry width="50" height="50" relative="1" as="geometry">
            <mxPoint x="465" y="560" as="sourcePoint" />
            <mxPoint x="280" y="551" as="targetPoint" />
            <Array as="points">
              <mxPoint x="350" y="551" />
              <mxPoint x="350" y="412" />
            </Array>
          </mxGeometry>
        </mxCell>
        <mxCell id="4FmKSRbF8LB5oElhuLOY-259" value="" style="endArrow=classic;html=1;rounded=0;entryX=0;entryY=0.5;entryDx=0;entryDy=0;endFill=1;exitX=1;exitY=0.5;exitDx=0;exitDy=0;" edge="1" parent="1" source="4FmKSRbF8LB5oElhuLOY-257" target="4FmKSRbF8LB5oElhuLOY-128">
          <mxGeometry width="50" height="50" relative="1" as="geometry">
            <mxPoint x="-90" y="490" as="sourcePoint" />
            <mxPoint x="-90" y="410" as="targetPoint" />
            <Array as="points">
              <mxPoint x="50" y="465" />
              <mxPoint x="50" y="405" />
            </Array>
          </mxGeometry>
        </mxCell>
        <mxCell id="1HBcoB6EKXYELizeSA2l-2" style="rounded=0;orthogonalLoop=1;jettySize=auto;html=1;exitX=0;exitY=0.5;exitDx=0;exitDy=0;" edge="1" parent="1" source="Cs5zFBfVpe2Wg-GuBUAb-109">
          <mxGeometry relative="1" as="geometry">
            <Array as="points">
              <mxPoint x="400" y="441" />
              <mxPoint x="400" y="-560" />
            </Array>
            <mxPoint x="510" y="-560" as="targetPoint" />
          </mxGeometry>
        </mxCell>
        <mxCell id="1HBcoB6EKXYELizeSA2l-3" style="rounded=0;orthogonalLoop=1;jettySize=auto;html=1;entryX=1;entryY=0.5;entryDx=0;entryDy=0;exitX=0;exitY=0.5;exitDx=0;exitDy=0;" edge="1" parent="1" source="Cs5zFBfVpe2Wg-GuBUAb-145" target="4FmKSRbF8LB5oElhuLOY-12">
          <mxGeometry relative="1" as="geometry">
            <Array as="points">
              <mxPoint x="370" y="470" />
              <mxPoint x="370" y="-335" />
            </Array>
          </mxGeometry>
        </mxCell>
        <mxCell id="1HBcoB6EKXYELizeSA2l-4" style="rounded=0;orthogonalLoop=1;jettySize=auto;html=1;entryX=1;entryY=0.5;entryDx=0;entryDy=0;exitX=1;exitY=0.5;exitDx=0;exitDy=0;" edge="1" parent="1" source="Cs5zFBfVpe2Wg-GuBUAb-174" target="Cs5zFBfVpe2Wg-GuBUAb-203">
          <mxGeometry relative="1" as="geometry">
            <Array as="points">
              <mxPoint x="780" y="525" />
              <mxPoint x="780" y="785" />
            </Array>
          </mxGeometry>
        </mxCell>
        <mxCell id="1HBcoB6EKXYELizeSA2l-5" style="rounded=0;orthogonalLoop=1;jettySize=auto;html=1;exitX=1;exitY=0.5;exitDx=0;exitDy=0;entryX=0;entryY=0.5;entryDx=0;entryDy=0;" edge="1" parent="1" source="Cs5zFBfVpe2Wg-GuBUAb-33" target="Cs5zFBfVpe2Wg-GuBUAb-127">
          <mxGeometry relative="1" as="geometry">
            <Array as="points">
              <mxPoint x="780" y="497" />
              <mxPoint x="780" y="404" />
            </Array>
          </mxGeometry>
        </mxCell>
        <mxCell id="1HBcoB6EKXYELizeSA2l-6" style="rounded=0;orthogonalLoop=1;jettySize=auto;html=1;entryX=0;entryY=0.5;entryDx=0;entryDy=0;exitX=1.009;exitY=0.786;exitDx=0;exitDy=0;exitPerimeter=0;" edge="1" parent="1" source="4FmKSRbF8LB5oElhuLOY-125" target="4FmKSRbF8LB5oElhuLOY-41">
          <mxGeometry relative="1" as="geometry">
            <Array as="points">
              <mxPoint x="1160" y="960" />
              <mxPoint x="1160" y="535" />
            </Array>
            <mxPoint x="1000" y="1061" as="sourcePoint" />
          </mxGeometry>
        </mxCell>
        <mxCell id="1HBcoB6EKXYELizeSA2l-7" style="rounded=0;orthogonalLoop=1;jettySize=auto;html=1;entryX=1;entryY=0.5;entryDx=0;entryDy=0;" edge="1" parent="1" target="4FmKSRbF8LB5oElhuLOY-64">
          <mxGeometry relative="1" as="geometry">
            <mxPoint x="510" y="890" as="sourcePoint" />
            <mxPoint x="330" y="850" as="targetPoint" />
            <Array as="points">
              <mxPoint x="440" y="890" />
              <mxPoint x="430" y="860" />
            </Array>
          </mxGeometry>
        </mxCell>
        <mxCell id="1HBcoB6EKXYELizeSA2l-8" style="edgeStyle=orthogonalEdgeStyle;rounded=0;orthogonalLoop=1;jettySize=auto;html=1;" edge="1" parent="1" source="4FmKSRbF8LB5oElhuLOY-55" target="Cs5zFBfVpe2Wg-GuBUAb-127">
          <mxGeometry relative="1" as="geometry" />
        </mxCell>
        <mxCell id="1HBcoB6EKXYELizeSA2l-9" style="rounded=0;orthogonalLoop=1;jettySize=auto;html=1;exitX=1;exitY=0.5;exitDx=0;exitDy=0;entryX=0;entryY=0.5;entryDx=0;entryDy=0;" edge="1" parent="1" source="Cs5zFBfVpe2Wg-GuBUAb-191" target="4FmKSRbF8LB5oElhuLOY-110">
          <mxGeometry relative="1" as="geometry">
            <Array as="points">
              <mxPoint x="800" y="852" />
              <mxPoint x="800" y="893" />
            </Array>
            <mxPoint x="650" y="850" as="sourcePoint" />
          </mxGeometry>
        </mxCell>
        <mxCell id="0HBURQQi9EqjPtxvPlCj-1" value="" style="shape=image;verticalLabelPosition=bottom;labelBackgroundColor=default;verticalAlign=top;aspect=fixed;imageAspect=0;image=data:image/jpeg,/9j/4AAQSkZJRgABAQEAYABgAAD/2wBDAAMCAgICAgMCAgIDAwMDBAYEBAQEBAgGBgUGCQgKCgkICQkKDA8MCgsOCwkJDRENDg8QEBEQCgwSExIQEw8QEBD/2wBDAQMDAwQDBAgEBAgQCwkLEBAQEBAQEBAQEBAQEBAQEBAQEBAQEBAQEBAQEBAQEBAQEBAQEBAQEBAQEBAQEBAQEBD/wAARCACFASwDASIAAhEBAxEB/8QAHwAAAQUBAQEBAQEAAAAAAAAAAAECAwQFBgcICQoL/8QAtRAAAgEDAwIEAwUFBAQAAAF9AQIDAAQRBRIhMUEGE1FhByJxFDKBkaEII0KxwRVS0fAkM2JyggkKFhcYGRolJicoKSo0NTY3ODk6Q0RFRkdISUpTVFVWV1hZWmNkZWZnaGlqc3R1dnd4eXqDhIWGh4iJipKTlJWWl5iZmqKjpKWmp6ipqrKztLW2t7i5usLDxMXGx8jJytLT1NXW19jZ2uHi4+Tl5ufo6erx8vP09fb3+Pn6/8QAHwEAAwEBAQEBAQEBAQAAAAAAAAECAwQFBgcICQoL/8QAtREAAgECBAQDBAcFBAQAAQJ3AAECAxEEBSExBhJBUQdhcRMiMoEIFEKRobHBCSMzUvAVYnLRChYkNOEl8RcYGRomJygpKjU2Nzg5OkNERUZHSElKU1RVVldYWVpjZGVmZ2hpanN0dXZ3eHl6goOEhYaHiImKkpOUlZaXmJmaoqOkpaanqKmqsrO0tba3uLm6wsPExcbHyMnK0tPU1dbX2Nna4uPk5ebn6Onq8vP09fb3+Pn6/9oADAMBAAIRAxEAPwD9U6KKKACiiigAooooAKKKKAIrm6t7O3lvLy4jgghUySSSMFVFHJJJ4AHrXkD/ALX37Osetf2E3xKsvO3bPOEMpt8/9dQuzHvnHvXm/wDwUQ8Wa5oXwq0fQ9Knlgtdd1Mw3zxnG+OOMsIyfRmwcd9lfnLXjY7M5Yap7OmvvP1HhDgLD59gPr2LqSSk2oqNuml3dPr0/E/b+yvrPUrOHUNPuorm2uEEkM0Lh0kU8hlI4INT18if8E5fFuuax8P/ABF4Y1KaWax0O+iNizkkRrMrF4x7Arux/tmvruvTw9b6xSjU7nwmeZXLJcwq4GUubke/dNXX4MKKKK2PJCiiigAooooAKKKKACiiigAooooAKKKKACiiigAooooAKKKKACiiigAooooAKKKKACiiigAooooAKKKKACiiigDg/jT8IPDvxt8DXPgvxA7wbmE9pdxqC9rOudrgHqOSCO4J+tfEUn/BOf4wDWfscfiXw02nbv8Aj8M0obb6+Xszn2z+Nb37f3jnxr4Y+K2i2fhvxdrOlW8mhxyPFZX0sKM/nSjcQjAE4A59q8++D/7bnxZ+Huo29t4s1SfxXoWQs1vetuuI07tHMfmz7NkH2614OLrYSpiOSvF3Wlz9l4ayriTAZPHFZTWjKNRc3JJbP+63pfTrZH3z8Dfgv4f+BngeHwfocz3UryG5vryRdrXM5ABbH8IAAAHYDuea9DrB8C+N/DvxG8K6f4y8K3wutN1GPzI26Mp6MjDsynII9RW9Xt04xjBKnt0PyXHVcTXxNSpjG3UbfNfe/W/+XQKKKKs5AooooAKKKKACiiigAooooAKKKKACiiigAooooAKKKKACiiigAooooAKKKKACiiigAooooAKKKKACiiigAooooA/On/go5/yV/Qv+xfj/APR81fJ9fWH/AAUc/wCSv6F/2L8f/o+avk+vjsw/3mfqf1HwX/yIcL/h/Vn2j/wT7+Lmi+F7LxV4P8YeKtO0rTg8F/Y/b7pIV8xtyShS5AOQqHA9K+wf+F1fB/8A6Kh4V/8ABvB/8VX420V0YfNZ4emqfLex4Wd+HeFzrHVMc6zg52ukla6SX42ufsl/wur4P/8ARUPCv/g3g/8AiqP+F1fB/wD6Kh4V/wDBvB/8VX420Vv/AG3U/kR5X/EJsJ/0Ey/8BR+yX/C6vg//ANFQ8K/+DeD/AOKo/wCF1fB//oqHhX/wbwf/ABVfjbS0f23U/kQf8Qmwn/QTL/wFH7I/8Lq+D/8A0VDwr/4N4P8A4qtLQfiL4B8U3x03wz400TVbsIZDBZ38U0gQYy21WJwMjn3ryP4G/sofCXwf4A0seIPB+l69rN/aR3F/d6hAs/7x1DFIwwIVRnAwOcZNQeGfgD4T+FH7SWm+LPA9omn6b4g0TUIZtPQnZDPG8LboweisG+70BHHXFetGpiLRlKKs7X8rn5pWwOSudajh6s3KCk4txjaTjr0d1ezt+h9C0UUV2HzIUUUUAFFFFABRRRQAUUUUAFFFFABRRRQAUUUUAFFFFABRRRQAUUUUAFFFFABRRRQAUUUUAfnT/wAFHP8Akr+hf9i/H/6Pmr5Pr6w/4KOf8lf0L/sX4/8A0fNXyfXx2Yf7zP1P6j4L/wCRDhf8P6s6rwL8LfiB8TJLyHwH4VvNaewVGuVt9v7oPkKTkjrtP5V13/DKf7RH/RKNa/KP/wCKr3//AIJo/wDIX8ef9e1h/wChTV93134PLKeJoqpJu7PjuKPEDHZFmlTA0aUJRjy6vmvrFPo13PxD1PTb7RtSutI1S2e3vLKZ7e4hf70ciMVZT7ggiq3Xj1rr/jF/yVrxp/2H7/8A9KHrkY/9Yv1FeNKPLJxP1LDVXWowqvdpP70epw/ss/tCXEMdxD8K9ZeOVQ6MBHgqRkH71P8A+GU/2iP+iUa1+Uf/AMVX6veHf+Rf0z/rzh/9AFaFfRLJaL+0/wAD8Pn4q5nGTj7Gn/5N/wDJHzN8Ffip8ePCvgux8K/Er4BeK7650q3W2t7/AE8wMZ40GEEivIuGAAG4E5x0q38O9a+OHj79oaHxV44+GupeFPCul6Ld2mnw3Dq/72R4iWdlPLsE7DAC49z638Uvi94C+DugHxF471pLOFyVt4FG+e5cfwxoOWPv0Hcivm/wp/wUCi8e/FDw/wCBfDXw7a30/WdShsWvL29/eqrtt3CNFwDjtuNbzlToONOpUeltPyvZHi4anjM2p4jG4PARSlGV5XklG/xcvNK1/RO22h9h0V5z8W/ihqHw61bwNp9jplvdr4r8RQ6LO0zMDCjgkuuOpGO/Fd/JfWcN1DYzXcKXNyrtDC0gDyBcbiqnlsZGcdMivQU1KTit0fG1MNUo0oVpL3Z3t8nZ/iT0UVn2PiDQdUvr3S9M1uwvL3TWVL23guUkltmOcCRFJKE4OAwHSqOc0KKKKACiiigAoqtfalp2mWst9qWoW1pbQ4Ek08qoiZIA3MxAGSQOfUVZoAKKKKACiiigAooooAKKKKACiiigAooooAKKKKACiiigAooooA/On/go5/yV/Qv+xfj/APR81fJ9fWH/AAUc/wCSv6F/2L8f/o+avk+vjsw/3mfqf1HwX/yIcL/h/Vn2v/wTR/5C/jz/AK9rD/0Kavu+vhD/AIJo/wDIX8ef9e1h/wChTV9319Dlf+6x+f5n4j4h/wDJRV/+3P8A0iJ+NPxi/wCSteNP+w/f/wDpQ9cjH/rF+orrvjF/yVrxp/2H7/8A9KHrkY/9Yv1FfK1P4j9T+isB/ulL/DH8kftp4d/5F/TP+vOH/wBAFWNQvrXTLG51K9lEVvaQvPM7dFRVJYn6AGq/h3/kX9M/684f/QBXK/HZmT4K+OmRipHh6/wR/wBcHr7eUuWHN2R/JVKl7fFRpP7Urfez8qfjt8YNd+NXxE1Hxdq1xJ9k8xodNtS3y21qCdigdASOWPck1L+zd/yXvwD/ANh60/8ARgrzevSP2bv+S9+Af+w9af8AowV8ZTnKpWUpbtr8z+oMXhqWDyuph6KtGNOSS8uVn6IftQf8jN8G/wDse7T/ANBatH4yatNoPxc8B65bRpJNp3h7xXdxq+drNHb2zAHHOMis79qD/kZvg3/2Pdp/6C1el+NPhnpPjbWtO1zUL66gm03TdU02NYdu1kvo0jkY5B5URgj6nOa+upfxany/I/nDMP8AkW4P0n/6WzyvwR8WvjdqHh34beK/GNv4PgtvidDHBBa2NtcNJpNzNYS3Vu7u0uLhD5RDoFjI3DDHGTzHwT17x34L+GunW8LeF77xL468caxpNhdLpktukTpfahNcT3R81nnCpBKY0BU8qhbq1e4Wnwj0Wz8N/D7w0mpXjQfDuW0msZDt3XBt7OS1XzeMcrKWOMcgdqqL8D/DsXgq08H2usapay6ZrN1r+m6pA8a3dleTXM05dCVKEf6RJGVZSGRirA5NdB4hxHjz4z/FH4Y2fiLQdS0vw/4g8QWMGj3mj3MSy2VrexXuopZNHNGXkaJ43bO4MwIZTjgitK98W/H2X4jW3wx0ubwSlzH4a/t6/wBVlsLpoVla6kijt44BOGIYIMuX42sdp3BRr3vwC0zWrXVJvE3i7WdY1rV7jS5LjVLhYUdIbC7W6gt4oo0WOOPzFYnC7iXYknjHaR+DrKPx9P8AEAXUxu59Hi0doOPLEcc0kobpncTIR1xgCgDxrwh8dviVe6L4H+I3i7S/Dlp4Z8bakdKGm2Yme8sGMczRzmdm2Shmt2ynlrtV1+YkHM938XPjPb+C/C/xWj0nwrJoHirVtJt10spOLuxsL+6iiinafzNksgSZWaMRqAW4Ztvzdtp/wP0DT/BvgrwWuqXstp4J1SLVLWRwm64dBMAknGNp89s49BWLcfs5W11p2j+FpviL4i/4RTw9qlnq2laMogVYXtrhZoYXm2eZJChQBUJ4GMk7RgA8q8P33jDwr4W+PmueLNQ0DxXZ2fjTy/7Nu9FKwSTGHTvnYNM4KhWXCY4Zd2ecV6zN40+LPiibxbrHw/Hhu30vwpf3GmW1lqVtNJNq09uqmfMySKLZd5aNTsk5UseCBV7VfgLo+p/8JnaL4o1i30vxxdJqGoaeggMcd4ogBnjcx+YCVtowVLFeWIGTU2ufBWPUtQ12TRfH3iPw/pviqTzta07T2g8u4kMaxySRySRtJAzoqqxjYZxkYbLUAcF4d+M/xi+KV54o1b4b6f4V07w9oFhp2oWb6vDPLcag91p0N4bdvLkUQbRLgy4f7y4Q7ST7V4D8VQ+OvBHh/wAaW1s9vFr2mW2pJC5y0YmiWQKT3I3Y/Csvwt8LvD/g9/Ea6I0sFt4i+zBrZQojtUgs4rREiAHQRwqec85rW8EeFbPwN4N0PwXp9xNcWug6db6bDLNjfIkMaorNgAZIXJxQBt0UUUAFFFFABRRRQAUUUUAFFFFABRRRQAUUUUAFFFFAH50/8FHP+Sv6F/2L8f8A6Pmr5Pr7a/4KReBr/wDtLwv8RreF3szbvpN046RuGMkefTcGk/75r4lr4/MYuOKnc/p/getCtkGH5Heyafqmz7X/AOCaP/IX8ef9e1h/6FNX3fXwh/wTR/5C/jz/AK9rD/0Kavu+voMr/wB1j8/zPxXxD/5KKv8A9uf+kRPxp+MX/JWvGn/Yfv8A/wBKHrkY/wDWL9RXXfGL/krXjT/sP3//AKUPXIx/6xfqK+VqfxH6n9FYD/dKX+GP5I/bTw7/AMi/pn/XnD/6AK5T48f8kU8d/wDYvX//AKIeur8O/wDIv6Z/15w/+gCuU+PH/JFPHf8A2L1//wCiHr7Wp/Dfofyfg/8Af6f+Nf8ApR+M9ekfs3f8l78A/wDYetP/AEYK83r0j9m7/kvfgH/sPWn/AKMFfF0f4kfVH9RZp/uNb/BL/wBJZ+iH7UH/ACM3wb/7Hu0/9Bar37U3h2SH4ZeIvHml+KvFOkatpdjGLZtL126tIVPnKNxijcIzYYjJGenoKo/tQf8AIzfBv/se7T/0Fq9H+MngnUPiN8Mte8E6TdW9vd6rbrDFLcZ8tSJFb5toJ6Kegr7Gl/FqfL8j+acw/wCRbg/Sf/pbMq+1PSfgza6d4b0W28UeKtX8R3ki6fp9xqz3lxIUjDSv513LtiiRACSWAywABZgDT/4X/pa2MtnN4N11fFkerpoY8M/uDdyXbwm4TbJ5nkmIwK0vm79oVWB+Ybal+M3wlf4g6h4a8TWOk6Bq2oeGZbkLpuuoxs7u3uEVZULqrmJwY43VwjfdKkYYkclpXwI8W6L9n8ZaDY+C9F8TWGvDVrTSdPt2i037N9kktWtpbhYxLIzJLJJ5pj+ViAE2g56DxCt8TvjZrlnN4KkTwT4t0zWLPxtb6df+H4vLee+SfT7xoVSSOQwyxM6qSxfahjJfbsrb1T9pyy0O3Sx1b4ZeKofEza9beHv+Eej+yy3JnubeSe3kWRZTC0TrE4378KVbdjaa0rrwJ8UfFmt+GvEXjLU9DtzofiePVk0yweSSG2tEsbqDaszxq8srvcBiSqqFUADIJaDX/g3r+rfGC2+IcOo2K2MOsaVqLQsW83Za2OoW7j7uMlryMjnore2QCyv7QFjBa6hY6t4G16x8U2Op2ukp4cZreS5up7mNpIDFKkhhMbRpIxcuAoik3Y21z3xO+LmrT+D9a0KbR9X8H+KdLvtBuPIkuI2M1lcapBEZYZoWKuh/eRuMgjOCMMCdPxf8GvFmp/EDVviR4c1fTINTiudHv9Giug5ieW0hvIJ4Z9oyqSRXjKGXcVOGwcYNDxN8G/iF8RJNU8S+MLrQNP1u4j0vT9Ps7Ceae2tbO21KG8mZ5njRpJJTEABsCrsUc5JoA6HV/jsth/burab8P9f1Xwz4YupbXVdbtmgEcbQnFy0ULSCWZYSGDlF6qwXcVIqt4o/aIsNA0/xB4k0rwF4h8Q+GfCyOdV1nTTbGKNkiEriOOSVZJgisu5kUgEkclWxRvvhp8WtN0nxN8PfCGqeG18M+Jry/uI9SvHmF/pUd9I8lyiQKhjnIeWVo2aRMbwGB2/N5f8RLXU/CXgv4i/BzwHrl7pn9rJPa6botz4dnur26ee1RP9BuEcRNDK3V3UmJjKWwAMAHusfxu8OSeE7/AMTf2bqCz2GuL4efTCqfamvJJ0jhULuxiRZYpVOf9W4Y969Frwq1+GsuoftHWuubbuHSNC0Ky1PULdo8W1zrm2a2tpkbozx2xmD/AFtz/CK91oAKKKKACiiigAooooAKKKKACiiigAooooAKKKKACiiigDA8deB/DvxG8K6h4N8VWK3WnajF5ci/xKequp7MpwQfUV+afxm/Y5+K3wv1K4n0bRrrxNoG4tBfafCZJETkgSxLllIHUgFfftX6l0Vx4vBU8Wve0a6n1HDfFuO4ak1QtKnLeL2v3XZ/00fC3/BNuzvLPWvHsd5azQOLexBWSMqQd03Y1900xYoo2Z0jVWb7xC4J+tPrTC0Pq1JU73scPEOcf29mE8e4cnNbS99klvZdux+NPxjBHxa8aAjB/t+//wDSh65GP/WL9RXtv7ZHw/vvAnx31+WWArZeIJTq9nJtwrrLy4Husm4H8PWvEo/9Yv1FfH14uFWUX3P6eyfEU8Xl1CtTd04R/I/bTw7/AMi/pn/XnD/6AK5T48f8kU8d/wDYvX//AKIeur8O/wDIv6Z/15w/+gCuU+PH/JFPHf8A2L1//wCiHr7Op/Dfofytg/8Af6f+Nf8ApR+M9ekfs3f8l78A/wDYetP/AEYK83r0j9m7/kvfgH/sPWn/AKMFfF0f4kfVH9RZp/uNb/BL/wBJZ+iH7UH/ACM3wb/7Hu0/9Bau98Z+P7zwv8SvCHhuSS2i0fV9P1q91GaVSWjFpHA6spB4AEj54OcCuC/ag/5Gb4N/9j3af+gtWz8afCfiPX/GnhzUNG0e4u7a08N+KLWaSMZCTXFtAsKH3dlYD6V9jS/i1Pl+R/NOYf8AItwfpP8A9LZ0vhL48fCHx1fW2n+E/HenajLewvcWbR71iukRdzmGVlCSlBywRiV53AYNMj+O3wzvLW6m0nX5b54LOW/gSDT7lzewx4DSWoEf+lKCy5MO8AEHoa86sPh34is/hL8AtBtfCJF34YfTxqVmyBBaKNFuYZVkx91TJIqNju1QfDHQvGOma94b0PQfDfjDSdAs9PuLbUtH8RpBcWWinyCsaafeHM8n7zagAZ4zEWzsIAroPEOl8A/HVfH3gPwD48/tGLRRriGTUtNudDvDNeuLF7h4bIMFY7dpcOFkDqjKuSavfCP9oLw38RvDVpq+qCfSbvUPEF7oNpDc6ddWy3E0U9yIlQzIu5jDbMzY4VgynB4rjfh74a8Yf8I98C9F1DwZrGnXHgK8ay1n7VEgRNmj3MHmoysQ8TSOihh13DisqHw7460fwv4ct2+H2vXFx8P/AIjX/iG8hhhjJv7C5uNR2yWfz4mKpdxuU+VsAgAtxQB6V8avj74e+E+lzmFZtR1e1vtJt7izg0+6ufJhvLpIg7+Sjbcp5pTJ+ZkCjJIB6PXPjD8O/DMdi2va81nJqFmNQit3s7g3CW3eaWFUMkKDoWkVQDkHBrxDxJo3xC8eXXxM8X2vw116xtLyfwhNo9rdpHHeahDp18Z7llhL5RsbtqOVY/LwCcVp69pXi60+J+u/ESOH4lafpfi3SNOW1j0DT7OaeKW3Eqta3UU0UjRElw6tkR/O+4qRyAfQ+n6hY6tY2+qaXeQ3dndxLPb3ELh45Y2AKsrDgggggirFcN8EfCt94K+Ffh7w3qVjNZXNrbu0ltNcpPJAZJHk8tnRVQld+DsUKMYXgCu5oAKKKKACiiigAooooAKKKKACiiigAooooAKKKKACiiigAooooAKKKKACiiigDzX47fAnwn8ePCn9g6/utb61Jk07UYlBktpCOeP4kPGV74HQgGvgDxl+xH8fPCWpPDp/hhfENmrZju9NmRty54zGxDg+2D9TX6k0VxYnAUcU+aWj7o+tyDjPM+HqfsKDUqf8stUvSzTX5eRS0OGS30Wwt5kKSR2sSOp6ghACK5H48f8AJFPHf/YvX/8A6Ieu7rivjXY3mpfCDxpp+n2stzdXOg3sUMMKF3kdoWAVVHJJPAArpqL9215Hz+BlfGU5P+ZfmfjDXvv7EPgHUPGnx90TUIYWNj4aLareSbcqu0ERrn1LlcfQ+lU/h3+xr8ePH99DFJ4PuPD9g5HmX2rqYFRc8kRn52PsB+Ir9GPgR8CfCfwG8IDw54eBuby5Il1HUZFAlupcYz/sqOir29ySa+ay/AVKlRVJq0VqfuXGPF2CwWBqYXDVFOrNOPuu/Kno22vLZb3Nn4gfDHSPiJf+F9Q1S+u7d/CusR6zarBtxLKgICvkH5ee2DXY0UV9OopNyXU/BZ16lSnGnJ3jG9l2u7v8QoooqjIKKKKACiiigAooooAKKKKACiiigAooooAKKKKACiiigAooooAKKKKACiiigAooooAKKKKACiiigAooooAKKKKACiiigAooooAKKKKACiiigAooooAKKKKACiiigAooooAKKKKACiiigAooooA//9k=;" vertex="1" parent="1">
          <mxGeometry x="-220" y="-700" width="300" height="133" as="geometry" />
        </mxCell>
        <mxCell id="0HBURQQi9EqjPtxvPlCj-2" style="edgeStyle=orthogonalEdgeStyle;rounded=0;orthogonalLoop=1;jettySize=auto;html=1;" edge="1" parent="1" source="4FmKSRbF8LB5oElhuLOY-189" target="Cs5zFBfVpe2Wg-GuBUAb-97">
          <mxGeometry relative="1" as="geometry">
            <Array as="points">
              <mxPoint x="400" y="-605" />
              <mxPoint x="400" y="-585" />
            </Array>
          </mxGeometry>
        </mxCell>
        <mxCell id="0HBURQQi9EqjPtxvPlCj-4" value="" style="rounded=1;whiteSpace=wrap;html=1;strokeColor=none;" vertex="1" parent="1">
          <mxGeometry x="-120" y="-1000" width="1460" height="20" as="geometry" />
        </mxCell>
      </root>
    </mxGraphModel>
  </diagram>
</mxfile>
